<svg width="552" height="354" viewBox="0 0 552 354" fill="none" xmlns="http://www.w3.org/2000/svg">
<path d="M275 322C181.177 322 133.409 300 111.036 269.332C105.419 261.633 101.403 253.388 98.66 244.807C95.1215 233.736 93.7033 222.106 93.7033 210.372C93.7033 187.728 99.7846 165.273 110.686 144.636C92.8985 104.946 98.6703 2 142.132 2C176.901 2 204.634 39.7147 214.154 58.5721C217.825 57.3519 221.552 56.2408 225.33 55.2443C232.602 53.3259 240.062 51.8318 247.681 50.8011C255.792 49.7039 266.566 49.1318 275 49.1318V90.062V108.047V126.031V197.969V217.814V269.907V322Z" fill="#F1EEEA"/>
<path d="M275 322V324H277V322H275ZM110.686 144.636L112.454 145.57L112.454 145.57L110.686 144.636ZM188.077 69.4986L188.987 71.2795L188.987 71.2795L188.077 69.4986ZM275 49.1318H277V47.1318H275V49.1318ZM275 320C181.374 320 134.447 298.029 112.652 268.154L109.42 270.511C132.371 301.97 180.98 324 275 324V320ZM112.652 268.154C107.17 260.64 103.247 252.59 100.565 244.198L96.755 245.416C99.5578 254.185 103.667 262.626 109.42 270.511L112.652 268.154ZM100.565 244.198C97.1028 233.365 95.7033 221.949 95.7033 210.372H91.7033C91.7033 222.264 93.1402 234.106 96.755 245.416L100.565 244.198ZM215.939 57.6707C211.092 48.0699 201.648 33.7302 188.985 21.761C176.344 9.8124 160.248 0 142.132 0V4C158.785 4 173.94 13.045 186.237 24.668C198.513 36.2706 207.695 50.2169 212.368 59.4734L215.939 57.6707ZM95.7033 210.372C95.7033 188.087 101.688 165.951 112.454 145.57L108.917 143.702C97.8809 164.595 91.7033 187.368 91.7033 210.372H95.7033ZM142.132 0C130.332 0 121.273 7.03265 114.682 17.6507C108.108 28.2432 103.81 42.6488 101.463 58.1344C96.7766 89.0575 99.7565 125.139 108.86 145.454L112.511 143.818C103.827 124.442 100.8 89.2061 105.418 58.7338C107.723 43.5217 111.905 29.7103 118.081 19.7601C124.241 9.83556 132.201 4 142.132 4V0ZM188.987 71.2795C197.213 67.0748 205.833 63.4447 214.785 60.47L213.523 56.6741C204.377 59.7136 195.57 63.4224 187.167 67.7178L188.987 71.2795ZM189.856 68.5858C187.274 63.5523 182.162 56.0833 175.123 49.8461C168.089 43.6129 158.943 38.4496 148.341 38.4496V42.4496C157.607 42.4496 165.845 46.9693 172.47 52.8399C179.091 58.7065 183.912 65.7619 186.297 70.4114L189.856 68.5858ZM112.454 145.57C118.644 133.851 126.413 122.717 135.526 112.477L132.538 109.818C123.219 120.289 115.264 131.687 108.917 143.702L112.454 145.57ZM135.526 112.477C150.2 95.9879 168.351 81.8274 188.987 71.2795L187.167 67.7178C166.088 78.4916 147.541 92.9582 132.538 109.818L135.526 112.477ZM148.341 38.4496C141.021 38.4496 136.278 43.2933 133.362 49.8068C130.461 56.2864 129.137 64.8339 128.701 73.3707C128.262 81.9474 128.71 90.699 129.465 97.6988C129.842 101.2 130.298 104.284 130.764 106.707C131.212 109.036 131.711 110.989 132.246 112.049L135.817 110.245C135.569 109.755 135.151 108.336 134.692 105.951C134.251 103.659 133.81 100.687 133.442 97.2702C132.705 90.4328 132.27 81.8976 132.695 73.5751C133.123 65.2126 134.412 57.2485 137.012 51.4413C139.597 45.668 143.243 42.4496 148.341 42.4496V38.4496ZM247.949 52.7831C255.95 51.7007 266.632 51.1318 275 51.1318V47.1318C266.501 47.1318 255.634 47.7071 247.413 48.8192L247.949 52.7831ZM245.729 50.3688C244.236 57.1098 243.541 67.3991 247.237 76.1196C249.104 80.5241 252.102 84.5483 256.679 87.456C261.249 90.3593 267.255 92.062 275 92.062V88.062C267.844 88.062 262.623 86.493 258.824 84.0797C255.032 81.6709 252.52 78.3336 250.92 74.5587C247.683 66.9206 248.229 57.5794 249.634 51.2335L245.729 50.3688ZM214.785 60.47C218.417 59.263 222.103 58.1639 225.84 57.1781L224.82 53.3104C221.001 54.3178 217.234 55.4408 213.523 56.6741L214.785 60.47ZM225.84 57.1781C233.033 55.2804 240.413 53.8026 247.949 52.7831L247.413 48.8192C239.711 49.8611 232.17 51.3713 224.82 53.3104L225.84 57.1781ZM223.36 54.8987C221.252 66.9136 220.963 85.0567 227.788 100.303C231.217 107.963 236.46 114.926 244.191 119.964C251.924 125.004 262.015 128.031 275 128.031V124.031C262.653 124.031 253.352 121.159 246.375 116.613C239.397 112.066 234.612 105.756 231.439 98.6688C225.061 84.4208 225.268 67.1705 227.3 55.5898L223.36 54.8987ZM153.048 235.676L98.4007 242.824L98.9194 246.79L153.567 239.642L153.048 235.676ZM98.4007 242.824L48.7406 249.319L49.2594 253.285L98.9194 246.79L98.4007 242.824ZM152.717 254.353L110.445 267.422L111.627 271.243L153.898 258.174L152.717 254.353ZM110.445 267.422L48.4093 286.601L49.5907 290.422L111.627 271.243L110.445 267.422ZM260.854 178.019C260.415 169.688 256.368 157.417 245.777 147.226C235.143 136.991 218.06 128.992 191.802 128.992V132.992C217.201 132.992 233.232 140.704 243.004 150.108C252.82 159.554 256.471 170.85 256.86 178.229L260.854 178.019ZM243.289 207.055C238.389 196.415 227.757 181.974 211.675 173.087C195.491 164.142 173.931 160.911 147.532 172.574L149.149 176.233C174.408 165.073 194.654 168.25 209.741 176.588C224.93 184.982 235.036 198.696 239.656 208.728L243.289 207.055ZM275 195.969C268.567 195.969 263.77 197.248 260.599 199.42C257.356 201.641 255.835 204.812 256.252 208.14C256.655 211.361 258.819 214.306 262.038 216.392C265.281 218.493 269.708 219.814 275 219.814V215.814C270.358 215.814 266.713 214.655 264.213 213.035C261.689 211.399 260.438 209.383 260.221 207.643C260.016 206.009 260.669 204.22 262.859 202.72C265.12 201.171 269.015 199.969 275 199.969V195.969ZM273.08 217.253C270.438 226.301 257.495 245.581 221.604 245.581V249.581C259.226 249.581 273.767 229.172 276.92 218.375L273.08 217.253ZM221.604 245.581C185.603 245.581 166.316 226.157 161.275 216.861L157.758 218.767C163.479 229.316 184.093 249.581 221.604 249.581V245.581ZM254.476 256.897C255.792 260.84 260.732 271.907 275 271.907V267.907C263.439 267.907 259.438 259.129 258.271 255.63L254.476 256.897ZM273 49.1318V90.062H277V49.1318H273ZM273 126.031V197.969H277V126.031H273ZM273 197.969V217.814H277V197.969H273ZM273 217.814V269.907H277V217.814H273ZM273 269.907V322H277V269.907H273ZM277 126.031V108.047H273V126.031H277ZM277 108.047V90.062H273V108.047H277Z" fill="#171717"/>
<path d="M339.397 60.547C350.956 41.0313 381.751 2 412.463 2C446.857 2 459.789 86.8051 448.125 131.278C461.495 111.389 480.576 111.389 497.914 111.389C515.251 111.389 548.688 126.306 549.927 162.354C551.165 198.403 536.304 208.347 535.066 220.778C533.827 233.208 541.258 261.799 544.973 294.118C557.853 389.585 445.488 345.798 387.695 311.971C360.023 321.567 325.03 322.708 275 322.708V270.5V218.292V208.347V198.403V126.306V108.281V90.257V49.2361C286.345 49.2361 295.051 50.1979 305.96 52.0225C305.96 52.0225 320.978 54.9724 328.252 57.0383C332.014 58.107 335.731 59.278 339.397 60.547Z" fill="#171717"/>
<path d="M403.795 36.8056L404.281 34.8657L403.795 36.8056ZM275 49.2361V47.2361H273V49.2361H275ZM305.96 52.0225L306.346 50.06L306.318 50.0545L306.29 50.0499L305.96 52.0225ZM328.252 57.0383L328.798 55.1144L328.798 55.1144L328.252 57.0383ZM275 322.708H273V324.708H275V322.708ZM544.973 294.118L542.986 294.347L542.988 294.366L542.991 294.386L544.973 294.118ZM535.066 220.778L533.076 220.58L533.076 220.58L535.066 220.778ZM549.927 162.354L547.928 162.423L549.927 162.354ZM341.118 61.5662C346.821 51.9376 357.297 37.4575 370.117 25.4127C383.005 13.3047 397.898 4 412.463 4V0C396.316 0 380.456 10.211 367.378 22.4975C354.233 34.8473 343.532 49.6407 337.676 59.5278L341.118 61.5662ZM441.292 145.892C450.915 163.945 456.285 183.447 456.285 203.375H460.285C460.285 182.717 454.717 162.574 444.822 144.011L441.292 145.892ZM338.743 62.437C347.213 65.3685 355.411 68.8274 363.271 72.7557L365.06 69.1777C357.045 65.172 348.687 61.6456 340.051 58.657L338.743 62.437ZM365.84 72.061C369.917 65.8228 376.766 56.6571 384.027 49.4506C387.661 45.8429 391.328 42.7979 394.741 40.8444C398.204 38.8627 401.083 38.1872 403.308 38.7454L404.281 34.8657C400.562 33.9323 396.547 35.2024 392.755 37.3727C388.913 39.5712 384.963 42.8849 381.209 46.6116C373.691 54.074 366.67 63.4805 362.491 69.8724L365.84 72.061ZM363.271 72.7557C385.751 83.991 405.455 99.0591 420.868 116.595L423.873 113.955C408.099 96.0085 387.975 80.6306 365.06 69.1777L363.271 72.7557ZM420.868 116.595C428.921 125.757 435.799 135.587 441.292 145.892L444.822 144.011C439.174 133.415 432.115 123.332 423.873 113.955L420.868 116.595ZM403.308 38.7454C406.411 39.5243 409.696 41.955 412.752 46.0832C415.791 50.1872 418.485 55.8174 420.448 62.6658C424.372 76.3557 425.304 94.6877 420.427 114.804L424.314 115.746C429.345 94.9984 428.419 75.9603 424.293 61.5637C422.231 54.3689 419.353 48.2768 415.967 43.7032C412.599 39.1537 408.608 35.9514 404.281 34.8657L403.308 38.7454ZM275 51.2361C286.206 51.2361 294.798 52.1834 305.63 53.9951L306.29 50.0499C295.304 48.2124 286.484 47.2361 275 47.2361V51.2361ZM275 92.257C290.552 92.257 299.607 85.5194 304.311 76.875C308.922 68.4014 309.226 58.3441 307.923 51.6409L303.997 52.404C305.171 58.4456 304.856 67.5056 300.798 74.9631C296.833 82.2497 289.17 88.257 275 88.257V92.257ZM305.96 52.0225C305.575 53.985 305.575 53.985 305.575 53.985C305.575 53.985 305.575 53.985 305.575 53.9851C305.576 53.9851 305.576 53.9853 305.577 53.9854C305.579 53.9858 305.581 53.9863 305.585 53.987C305.592 53.9884 305.603 53.9905 305.617 53.9932C305.645 53.9988 305.687 54.0071 305.743 54.0181C305.853 54.04 306.017 54.0725 306.229 54.1147C306.652 54.199 307.264 54.3218 308.023 54.4757C309.539 54.7836 311.637 55.2155 313.961 55.7116C318.627 56.7078 324.14 57.9496 327.705 58.9622L328.798 55.1144C325.09 54.0612 319.457 52.795 314.796 51.7998C312.456 51.3002 310.345 50.8654 308.818 50.5556C308.055 50.4007 307.438 50.277 307.011 50.1919C306.797 50.1493 306.631 50.1164 306.519 50.0941C306.462 50.083 306.419 50.0745 306.39 50.0687C306.376 50.0659 306.365 50.0637 306.357 50.0622C306.354 50.0615 306.351 50.0609 306.349 50.0606C306.348 50.0604 306.347 50.0602 306.347 50.0601C306.346 50.0601 306.346 50.06 306.346 50.06C306.346 50.06 306.346 50.06 305.96 52.0225ZM327.705 58.9622C331.431 60.0205 335.112 61.1803 338.743 62.437L340.051 58.657C336.35 57.3758 332.597 56.1934 328.798 55.1144L327.705 58.9622ZM275 128.306C287.945 128.306 298.195 125.344 306.204 120.435C314.212 115.526 319.871 108.737 323.743 101.249C331.455 86.3348 332.131 68.5565 330.226 56.7206L326.277 57.3561C328.088 68.6092 327.401 85.4646 320.19 99.4118C316.601 106.354 311.408 112.553 304.114 117.024C296.822 121.494 287.318 124.306 275 124.306V128.306ZM403.521 240.162L453.412 247.048L453.959 243.085L404.068 236.199L403.521 240.162ZM453.412 247.048L502.594 253.836L503.141 249.873L453.959 243.085L453.412 247.048ZM398.332 258.761L443.786 270.71L444.803 266.842L399.349 254.892L398.332 258.761ZM443.786 270.71L502.359 286.108L503.376 282.239L444.803 266.842L443.786 270.71ZM301.751 178.774C302.73 171.309 307.003 159.922 316.681 150.418C326.306 140.965 341.377 133.278 364.165 133.278V129.278C340.389 129.278 324.294 137.336 313.878 147.564C303.514 157.742 298.871 169.973 297.785 178.254L301.751 178.774ZM317.699 209.15C322.103 199.105 331.931 185.372 346.997 176.966C361.959 168.619 382.252 165.425 407.949 176.618L409.547 172.951C382.735 161.272 361.129 164.501 345.048 173.473C329.071 182.387 318.714 196.872 314.036 207.544L317.699 209.15ZM275 220.292C281.143 220.292 286.022 218.996 289.456 216.889C292.882 214.786 295.006 211.761 295.111 208.41C295.216 205.025 293.244 201.944 289.814 199.812C286.4 197.69 281.431 196.403 275 196.403V200.403C280.953 200.403 285.117 201.602 287.702 203.209C290.271 204.806 291.162 206.697 291.113 208.285C291.062 209.906 290.013 211.853 287.363 213.48C284.721 215.101 280.622 216.292 275 216.292V220.292ZM273.21 219.184C278.537 229.879 300.084 250.125 339.397 250.125V246.125C301.434 246.125 281.37 226.594 276.79 217.4L273.21 219.184ZM339.397 250.125C378.787 250.125 394.33 229.764 397.066 218.775L393.185 217.808C390.968 226.709 377.285 246.125 339.397 246.125V250.125ZM275 272.5C282 272.5 287.214 269.784 290.774 266.54C294.269 263.356 296.252 259.588 296.767 257.259L292.862 256.394C292.552 257.794 291.067 260.863 288.081 263.583C285.16 266.245 280.879 268.5 275 268.5V272.5ZM456.285 203.375C456.285 218.547 454.92 232.275 451.749 244.567L455.622 245.566C458.901 232.855 460.285 218.773 460.285 203.375H456.285ZM451.749 244.567C449.577 252.984 446.559 260.723 442.555 267.79L446.035 269.762C450.234 262.351 453.374 254.279 455.622 245.566L451.749 244.567ZM442.555 267.79C432.027 286.369 414.539 300.545 387.04 310.081L388.35 313.861C416.564 304.077 434.931 289.358 446.035 269.762L442.555 267.79ZM387.04 310.081C359.743 319.547 325.101 320.708 275 320.708V324.708C324.959 324.708 360.303 323.586 388.35 313.861L387.04 310.081ZM386.685 313.697C415.649 330.65 458.496 350.236 492.645 353.52C509.702 355.161 525.057 352.778 535.308 343.416C545.628 333.991 550.216 318.023 546.955 293.851L542.991 294.386C546.17 317.947 541.542 332.305 532.61 340.463C523.609 348.684 509.676 351.14 493.028 349.539C459.766 346.34 417.533 327.118 388.706 310.245L386.685 313.697ZM546.96 293.89C545.095 277.662 542.295 262.364 540.134 249.654C539.05 243.284 538.129 237.58 537.555 232.703C536.978 227.8 536.769 223.86 537.056 220.976L533.076 220.58C532.744 223.912 532.999 228.206 533.583 233.17C534.17 238.16 535.106 243.954 536.19 250.325C538.363 263.098 541.136 278.255 542.986 294.347L546.96 293.89ZM537.056 220.976C537.33 218.226 538.365 215.531 539.889 212.336C541.367 209.239 543.392 205.515 545.259 201.22C549.083 192.425 552.556 180.632 551.926 162.286L547.928 162.423C548.536 180.125 545.198 191.328 541.591 199.625C539.743 203.876 537.898 207.223 536.28 210.613C534.708 213.905 533.421 217.115 533.076 220.58L537.056 220.976ZM551.926 162.286C551.283 143.576 542.256 130.31 531.179 121.769C520.168 113.28 507.049 109.389 497.914 109.389V113.389C506.116 113.389 518.385 116.956 528.736 124.937C539.021 132.867 547.332 145.084 547.928 162.423L551.926 162.286ZM412.463 4C420.129 4 426.853 8.70211 432.531 17.0687C438.204 25.4284 442.608 37.152 445.616 50.4043C451.634 76.9198 451.925 108.906 446.19 130.77L450.059 131.785C455.989 109.177 455.646 76.5242 449.516 49.5189C446.45 36.0109 441.901 23.7537 435.841 14.8226C429.785 5.89852 421.995 0 412.463 0V4ZM446.19 130.77C444.862 135.835 443.222 140.31 441.284 144.027L444.83 145.876C446.942 141.828 448.677 137.057 450.059 131.785L446.19 130.77ZM497.914 109.389C480.657 109.389 460.487 109.304 446.465 130.162L449.785 132.394C462.503 113.474 480.494 113.389 497.914 113.389V109.389ZM490.483 161.868C497.897 161.868 502.942 164.991 506.166 168.649C509.476 172.405 510.774 176.614 510.774 178.514H514.774C514.774 175.442 512.977 170.328 509.167 166.004C505.269 161.582 499.169 157.868 490.483 157.868V161.868ZM510.774 178.514C510.774 179.231 510.841 179.99 510.889 180.625C510.939 181.299 510.974 181.898 510.95 182.471C510.905 183.568 510.651 184.446 509.92 185.229C509.135 186.068 507.592 187.024 504.481 187.754C501.382 188.482 496.909 188.945 490.483 188.945V192.945C497.061 192.945 501.876 192.475 505.395 191.649C508.901 190.825 511.305 189.605 512.843 187.959C514.434 186.256 514.876 184.336 514.947 182.637C514.981 181.812 514.929 181.012 514.878 180.327C514.824 179.602 514.774 179.04 514.774 178.514H510.774ZM490.483 188.945C477.563 188.945 472.037 186.754 469.683 184.64C467.506 182.684 467.715 180.547 467.715 178.514H463.715C463.715 180.21 463.305 184.288 467.01 187.616C470.539 190.784 477.397 192.945 490.483 192.945V188.945ZM467.715 178.514C467.715 178.052 468.011 176.759 468.933 174.926C469.816 173.171 471.174 171.123 473.041 169.177C476.755 165.306 482.448 161.868 490.483 161.868V157.868C481.18 157.868 474.49 161.889 470.154 166.408C467.996 168.658 466.412 171.038 465.36 173.128C464.347 175.142 463.715 177.111 463.715 178.514H467.715ZM490.483 134.521C491.913 134.521 493.278 135.001 494.26 135.878C495.206 136.722 495.914 138.033 495.914 139.979H499.914C499.914 136.953 498.763 134.535 496.923 132.893C495.119 131.284 492.769 130.521 490.483 130.521V134.521ZM495.914 139.979C495.914 142.159 495.372 143.426 494.639 144.161C493.908 144.895 492.65 145.438 490.483 145.438V149.438C493.27 149.438 495.727 148.737 497.473 146.985C499.217 145.234 499.914 142.772 499.914 139.979H495.914ZM490.483 145.438C488.552 145.438 487.249 144.731 486.408 143.781C485.533 142.794 485.053 141.42 485.053 139.979H481.053C481.053 142.268 481.81 144.623 483.413 146.433C485.049 148.28 487.461 149.438 490.483 149.438V145.438ZM485.053 139.979C485.053 138.762 485.679 137.38 486.792 136.263C487.905 135.146 489.279 134.521 490.483 134.521V130.521C487.972 130.521 485.631 131.761 483.958 133.44C482.284 135.12 481.053 137.467 481.053 139.979H485.053ZM512.774 143.222C514.204 143.222 515.569 143.703 516.551 144.579C517.498 145.423 518.205 146.735 518.205 148.681H522.205C522.205 145.654 521.055 143.236 519.214 141.595C517.41 139.985 515.06 139.222 512.774 139.222V143.222ZM518.205 148.681C518.205 150.86 517.663 152.127 516.93 152.863C516.199 153.597 514.941 154.139 512.774 154.139V158.139C515.561 158.139 518.019 157.438 519.764 155.686C521.508 153.935 522.205 151.473 522.205 148.681H518.205ZM512.774 154.139C510.843 154.139 509.54 153.432 508.699 152.482C507.825 151.495 507.344 150.121 507.344 148.681H503.344C503.344 150.969 504.102 153.324 505.704 155.134C507.34 156.981 509.752 158.139 512.774 158.139V154.139ZM507.344 148.681C507.344 147.464 507.97 146.082 509.083 144.965C510.196 143.847 511.57 143.222 512.774 143.222V139.222C510.264 139.222 507.922 140.462 506.249 142.141C504.576 143.821 503.344 146.168 503.344 148.681H507.344ZM468.192 141.979C469.621 141.979 470.986 142.46 471.969 143.336C472.915 144.18 473.622 145.492 473.622 147.438H477.622C477.622 144.411 476.472 141.993 474.632 140.351C472.828 138.742 470.478 137.979 468.192 137.979V141.979ZM473.622 147.438C473.622 149.617 473.08 150.884 472.348 151.62C471.616 152.354 470.358 152.896 468.192 152.896V156.896C470.979 156.896 473.436 156.195 475.181 154.443C476.926 152.692 477.622 150.23 477.622 147.438H473.622ZM468.192 152.896C466.26 152.896 464.957 152.189 464.116 151.239C463.242 150.252 462.761 148.878 462.761 147.438H458.761C458.761 149.726 459.519 152.081 461.122 153.891C462.757 155.738 465.17 156.896 468.192 156.896V152.896ZM462.761 147.438C462.761 146.221 463.387 144.839 464.5 143.722C465.613 142.604 466.987 141.979 468.192 141.979V137.979C465.681 137.979 463.34 139.219 461.666 140.898C459.993 142.578 458.761 144.925 458.761 147.438H462.761ZM273 49.2361V90.257H277V49.2361H273ZM273 126.306V198.403H277V126.306H273ZM273 218.292V270.5H277V218.292H273ZM273 270.5V322.708H277V270.5H273ZM277 126.306V108.281H273V126.306H277ZM277 108.281V90.257H273V108.281H277ZM273 198.403V208.347H277V198.403H273ZM273 208.347V218.292H277V208.347H273Z" fill="#F1EEEA"/>
</svg>
