<svg width="58" height="80" viewBox="0 0 58 80" fill="none" xmlns="http://www.w3.org/2000/svg">
<g clip-path="url(#clip0_524_350)">
<path d="M32.9007 0V3.11445H27.9277V3.74833H32.8943V10.9317H24.3287V7.66155H29.3008V7.04782H24.3131V0.258316C24.3131 0.172211 24.304 0.0861054 24.2985 0H32.9007Z" fill="#010101"/>
<path d="M43.204 0V3.11994H38.2356V3.74741H43.2059V10.928H34.6467V7.66245H39.6124V7.04597H34.6513C34.6418 6.98865 34.6354 6.93086 34.6321 6.87285C34.6321 4.62861 34.6321 2.38408 34.6321 0.139234C34.6347 0.0924813 34.6405 0.0459629 34.6495 0H43.204Z" fill="black"/>
<path d="M22.5973 0V3.58894H17.6069V7.18612H22.5827V10.7723H13.9988V10.5204C13.9988 7.10063 13.9988 3.68085 13.9988 0.261064C13.9988 0.169462 13.9988 0.0879367 13.9933 0.00091551L22.5973 0Z" fill="black"/>
<path d="M0.677202 15.7461H57.3326C57.3152 15.9778 57.3015 16.2087 57.2813 16.4395C57.0511 18.9952 56.8206 21.5515 56.5897 24.1084C56.3928 26.3196 56.2022 28.5318 56.0044 30.743C55.7928 33.1192 55.5739 35.4944 55.3632 37.8705C55.1965 39.7291 55.038 41.5877 54.8722 43.4463C54.6762 45.6447 54.4737 47.8377 54.2777 50.0334C54.1275 51.7115 53.9846 53.3896 53.8344 55.0714C53.6686 56.93 53.4973 58.7886 53.3315 60.6472C53.1812 62.3253 53.0383 64.0035 52.8881 65.6853C52.7232 67.5368 52.5559 69.3875 52.3861 71.2372C52.3211 71.9581 52.2506 72.679 52.2029 73.4017C52.191 73.5657 52.1342 73.6243 51.9822 73.6656C48.6571 74.5816 45.3325 75.5034 42.0086 76.431C37.7602 77.609 33.5117 78.7873 29.2632 79.9659C29.077 80.0213 28.8787 80.0213 28.6925 79.9659C21.5916 77.9885 14.4892 76.0151 7.38516 74.0457C6.92716 73.9175 6.46182 73.7856 5.99832 73.6637C5.94553 73.6573 5.89719 73.631 5.86315 73.5901C5.82911 73.5493 5.81193 73.497 5.81512 73.4439C5.63191 71.3187 5.44413 69.1936 5.25177 67.0684C5.05391 64.8645 4.85514 62.6612 4.65545 60.4585C4.50522 58.7804 4.36232 57.1013 4.21301 55.4204C4.04813 53.5689 3.88111 51.7182 3.71195 49.8685C3.57822 48.3708 3.44997 46.8722 3.31715 45.3745C3.16693 43.6964 3.01426 42.017 2.85915 40.3364C2.74098 39.0183 2.62739 37.7011 2.51015 36.3839C2.37641 34.8779 2.24114 33.3723 2.10435 31.867C1.98832 30.573 1.87321 29.279 1.75901 27.9849L1.34406 23.3508C1.23108 22.08 1.11811 20.8095 1.00514 19.5393C0.896436 18.3234 0.788037 17.1079 0.679947 15.8927C0.674451 15.8533 0.677202 15.8139 0.677202 15.7461ZM29.0342 60.3495L28.9783 60.376C26.4135 59.6811 23.8487 58.9874 21.2838 58.2949C21.1354 58.2555 21.0585 58.2033 21.0448 58.0366C20.9357 56.734 20.8194 55.4323 20.7049 54.1307C20.6591 53.6159 20.6133 53.1011 20.5629 52.5872H13.4492C13.5225 53.4015 13.5957 54.2003 13.6663 54.9991C13.7835 56.3245 13.8971 57.65 14.0153 58.9746C14.1499 60.4805 14.2901 61.9855 14.4183 63.4914C14.4339 63.6746 14.498 63.7378 14.6675 63.7845C18.8017 64.9277 22.9354 66.0752 27.0685 67.2269C27.7033 67.4028 28.3417 67.5695 28.9783 67.7399L29.0241 67.7545V75.0698C29.0969 75.071 29.1695 75.0654 29.2412 75.0533C30.4803 74.7113 31.7191 74.3681 32.9575 74.0237C34.2564 73.6628 35.555 73.3019 36.8533 72.941C38.2805 72.5441 39.7079 72.1471 41.1357 71.7502L45.5325 70.5291C46.1969 70.3459 46.8617 70.1627 47.5267 69.9795C47.665 69.9411 47.7777 69.8879 47.7905 69.7221C47.8375 69.1053 47.8852 68.4892 47.9334 67.8736C47.9652 67.4834 47.9994 67.0935 48.036 66.7039C48.0946 66.0627 48.1578 65.4279 48.2192 64.7894C48.2568 64.3763 48.2842 63.965 48.3209 63.5491C48.3804 62.8868 48.4436 62.2255 48.5041 61.5632C48.5407 61.1657 48.5709 60.7672 48.6076 60.3724C48.6662 59.7312 48.7303 59.0955 48.7908 58.457C48.8293 58.0283 48.8558 57.5987 48.8934 57.1746C48.9511 56.5123 49.0152 55.8509 49.0766 55.1887C49.1123 54.7911 49.1425 54.3927 49.1792 53.9979C49.2378 53.3667 49.3019 52.7365 49.3624 52.1063C49.4009 51.6849 49.4274 51.2636 49.465 50.8422C49.5227 50.1799 49.5868 49.5186 49.6482 48.8563C49.6839 48.4596 49.7141 48.0612 49.7508 47.6655C49.8094 47.0197 49.8735 46.3739 49.934 45.7272C49.9725 45.2985 49.9999 44.8689 50.0393 44.4448C50.0961 43.8219 50.1611 43.1999 50.217 42.577C50.2564 42.1483 50.283 41.7178 50.3205 41.2891C50.3782 40.6424 50.4424 39.9975 50.5037 39.3508C50.5413 38.9377 50.5706 38.5264 50.6082 38.1105C50.6668 37.4693 50.73 36.8345 50.7914 36.1961C50.828 35.783 50.8564 35.3717 50.894 34.9558C50.9526 34.3018 51.0158 33.6477 51.0772 32.9937C51.1147 32.5723 51.144 32.151 51.1825 31.7296C51.2393 31.1067 51.3043 30.4847 51.3602 29.8618C51.3996 29.4331 51.4243 29.0035 51.4637 28.5748C51.5205 27.9593 51.5883 27.3456 51.6469 26.7309C51.6863 26.294 51.7101 25.8561 51.7486 25.4192C51.8063 24.7496 51.8704 24.08 51.9318 23.4104C51.9675 23.0128 52.0014 22.6153 52.0381 22.2196C52.0903 21.647 52.1443 21.0755 52.2002 20.4791H51.9602C44.4141 20.4791 36.868 20.4773 29.3218 20.4736C29.0956 20.4736 29.047 20.546 29.047 20.7548C29.0535 23.0238 29.047 25.2928 29.047 27.5617L29.0012 27.5782C28.9463 27.5782 28.8913 27.5709 28.8364 27.5709H11.4284C11.3597 27.5709 11.291 27.5782 11.2141 27.5828C11.4294 29.9498 11.6428 32.2984 11.8553 34.6645H28.7191C28.8052 34.6645 28.8913 34.6599 28.9783 34.6572L29.0232 34.6755V41.9276L28.9783 41.9468C28.9307 41.9468 28.8867 41.9386 28.8373 41.9386H12.7017C12.6339 41.9386 12.5661 41.9477 12.4919 41.9532C12.7045 44.3238 12.9151 46.6725 13.1277 49.0349H28.7466C28.8254 49.0349 28.9032 49.0349 28.982 49.0276L29.0269 49.045C29.0269 52.698 29.0269 56.3514 29.0269 60.0051C29.0214 60.1132 29.0315 60.2313 29.0342 60.3495Z" fill="#264DE3"/>
<path d="M29.0214 27.553C29.0214 25.284 29.0214 23.015 29.0214 20.7461C29.0214 20.5372 29.0654 20.4648 29.2962 20.4648C36.8424 20.471 44.3885 20.4728 51.9346 20.4703H52.1746C52.1187 21.063 52.0647 21.6346 52.0124 22.2108C51.9758 22.6083 51.9419 23.0059 51.9062 23.4016C51.8448 24.0712 51.7807 24.7408 51.723 25.4104C51.6845 25.8473 51.6607 26.2852 51.6213 26.7221C51.5654 27.3368 51.4976 27.9505 51.4381 28.5661C51.3987 28.9948 51.374 29.4244 51.3346 29.8531C51.2787 30.476 51.2137 31.0979 51.1569 31.7208C51.1184 32.1422 51.0891 32.5636 51.0516 32.9849C50.9929 33.639 50.9297 34.293 50.8683 34.947C50.8308 35.3601 50.8024 35.7714 50.7658 36.1873C50.708 36.8285 50.6448 37.4633 50.5826 38.1018C50.545 38.5149 50.5157 38.9262 50.4781 39.3421C50.4195 39.9888 50.3554 40.6336 50.2949 41.2803C50.2574 41.709 50.2308 42.1396 50.1914 42.5683C50.1355 43.1912 50.0705 43.8131 50.0137 44.436C49.9743 44.8647 49.9468 45.2943 49.9084 45.7184C49.8507 46.3651 49.7865 47.0109 49.7252 47.6567C49.6885 48.0543 49.6583 48.4527 49.6226 48.8475C49.5621 49.5098 49.498 50.1712 49.4394 50.8335C49.4018 51.2548 49.3752 51.6762 49.3368 52.0976C49.28 52.7278 49.2159 53.358 49.1536 53.9891C49.1169 54.3858 49.0867 54.7842 49.051 55.1799C48.9905 55.8422 48.9264 56.5036 48.8678 57.1659C48.8302 57.5946 48.8037 58.0242 48.7652 58.4483C48.7084 59.0895 48.6443 59.7252 48.582 60.3637C48.5453 60.7603 48.5151 61.1588 48.4785 61.5545C48.4189 62.2168 48.3557 62.8781 48.2953 63.5404C48.2586 63.9535 48.2312 64.3648 48.1936 64.7807C48.1359 65.4219 48.0727 66.0567 48.0104 66.6952C47.9738 67.0848 47.9396 67.4747 47.9078 67.8649C47.8583 68.4805 47.8107 69.0966 47.7649 69.7134C47.7521 69.8783 47.6394 69.9323 47.5011 69.9708C46.8361 70.154 46.1713 70.3372 45.5069 70.5204L41.1101 71.7415C39.6829 72.1384 38.2555 72.5354 36.8277 72.9323C35.5288 73.292 34.2302 73.6529 32.9319 74.015C31.6934 74.3588 30.4547 74.702 29.2156 75.0446C29.1439 75.0567 29.0713 75.0623 28.9985 75.0611V67.755C29.5655 67.5947 30.1316 67.4307 30.6996 67.2732C34.9096 66.1056 39.1205 64.9389 43.3323 63.7731C43.3852 63.7664 43.4335 63.7399 43.4675 63.6989C43.5016 63.6579 43.5187 63.6055 43.5155 63.5523C43.5732 62.7902 43.6456 62.0299 43.7134 61.2696C43.8355 59.9212 43.9576 58.5729 44.0798 57.2245C44.1958 55.9225 44.3115 54.6209 44.4269 53.3195C44.5619 51.8063 44.6978 50.2933 44.8346 48.7807C44.9518 47.4708 45.0654 46.1618 45.1827 44.8519C45.3017 43.5118 45.4254 42.1707 45.5491 40.8306C45.6651 39.5292 45.7805 38.2276 45.8953 36.9256C46.0309 35.4038 46.1674 33.8829 46.3048 32.363C46.4092 31.2027 46.5139 30.0424 46.619 28.8821C46.6574 28.447 46.6922 28.0119 46.7298 27.5612H29.3072C29.2129 27.5612 29.1185 27.5557 29.0214 27.553Z" fill="#2965F0"/>
<path d="M28.9783 60.3763V67.7401C28.3417 67.5697 27.7032 67.403 27.0684 67.2271C22.9354 66.0797 18.8002 64.9322 14.6629 63.7847C14.4934 63.738 14.4293 63.6748 14.4137 63.4916C14.2873 61.9857 14.1453 60.4807 14.0107 58.9748C13.8925 57.6502 13.7789 56.3247 13.6617 54.9993C13.5911 54.2005 13.5179 53.4017 13.4446 52.5874H20.5638C20.6115 53.1013 20.66 53.6161 20.7058 54.1309C20.8203 55.4325 20.9366 56.7342 21.0457 58.0368C21.0594 58.2007 21.1373 58.2557 21.2847 58.2951C23.8496 58.9858 26.4141 59.6795 28.9783 60.3763Z" fill="#EAEAEA"/>
<path d="M28.9783 27.5693V34.6483C28.8913 34.6483 28.8052 34.6556 28.7191 34.6556H11.858C11.6427 32.2896 11.4293 29.9409 11.2168 27.5739C11.2937 27.5693 11.3624 27.562 11.4311 27.562H28.8134C28.8684 27.562 28.9233 27.5666 28.9783 27.5693Z" fill="#EAEAEA"/>
<path d="M28.9783 41.9379V49.0178C28.8996 49.0178 28.8217 49.0252 28.7429 49.0252H13.1277C12.9151 46.6627 12.7045 44.314 12.4919 41.9434C12.5661 41.9379 12.6339 41.9287 12.7017 41.9287H28.8382C28.884 41.9296 28.9298 41.9351 28.9783 41.9379Z" fill="#EAEAEA"/>
<path d="M29.0214 49.035C29.113 49.035 29.2101 49.0259 29.3044 49.0259H37.7108C37.675 49.4472 37.6439 49.8503 37.6073 50.2543C37.4894 51.5874 37.37 52.9195 37.2491 54.2508C37.1346 55.5277 37.0201 56.8047 36.9138 58.0834C36.9001 58.2492 36.7929 58.2602 36.6802 58.2914L32.1303 59.5188C31.0977 59.7973 30.0656 60.0742 29.0342 60.3496C29.0342 60.2315 29.025 60.1133 29.025 59.9951C29.0226 56.3421 29.0214 52.6887 29.0214 49.035Z" fill="#2965F0"/>
<path d="M29.0214 34.6663C29.0846 34.6663 29.1469 34.6562 29.2091 34.6562H38.9766C38.7604 37.0873 38.547 39.4955 38.3354 41.9137C38.2694 41.9192 38.2163 41.9284 38.1632 41.9284H29.1643C29.1175 41.9284 29.0727 41.922 29.0232 41.9183L29.0214 34.6663Z" fill="#2A65F0"/>
</g>
<defs>
<clipPath id="clip0_524_350">
<rect width="56.6563" height="80" fill="white" transform="translate(0.67627)"/>
</clipPath>
</defs>
</svg>
