<svg width="74" height="80" viewBox="0 0 74 80" fill="none" xmlns="http://www.w3.org/2000/svg">
<g clip-path="url(#clip0_524_361)">
<path d="M20.8175 9.83149C23.1615 12.1856 25.4752 14.4875 27.7671 16.8164C27.8932 16.9459 27.9184 17.2637 27.8713 17.4638C27.2593 19.986 28.0395 21.8945 30.2137 23.2834C30.3374 23.3716 30.4409 23.4852 30.5175 23.6165C30.594 23.7478 30.6418 23.8939 30.6576 24.0451C30.6834 29.4987 30.6834 34.9529 30.6576 40.4076C30.6409 40.5716 30.5894 40.7301 30.5065 40.8725C30.4235 41.0149 30.3111 41.1379 30.1767 41.2332C28.0563 42.5465 27.15 44.8148 27.905 47.0713C28.266 48.1429 28.9894 49.0549 29.9507 49.6503C30.912 50.2457 32.0508 50.4871 33.171 50.3329C34.2911 50.1787 35.3224 49.6386 36.0871 48.8056C36.8517 47.9727 37.3019 46.8991 37.36 45.7699C37.4659 43.9757 36.6874 42.533 35.2127 41.4653C34.9453 41.2719 34.6612 40.8768 34.6595 40.5741C34.6259 35.1479 34.636 29.7218 34.6376 24.2956C34.6376 24.1678 34.6662 24.04 34.6999 23.7609L38.3403 27.403C39.1709 28.2337 39.9915 29.0744 40.8373 29.8899C41.1433 30.1842 41.2593 30.4297 41.1299 30.8988C40.3379 33.7573 42.1051 36.5503 44.9872 37.0497C47.7768 37.534 50.3915 35.4489 50.6437 32.5399C50.8993 29.599 48.0559 26.9305 45.157 27.4669C44.365 27.6132 43.8875 27.4232 43.3494 26.8666C41.446 24.8959 39.482 22.9891 37.5634 21.0251C37.4496 20.8896 37.3645 20.7324 37.313 20.5631C37.2616 20.3937 37.2449 20.2157 37.2641 20.0398C37.8711 16.4195 35.1152 13.6501 31.4916 14.2319C31.2074 14.2773 30.7887 14.2168 30.6021 14.0335C28.2598 11.7517 25.9494 9.43802 23.486 6.9881C23.9619 6.55596 24.4058 6.18603 24.8144 5.78079C26.2857 4.32463 27.7402 2.85165 29.2098 1.3938C31.0763 -0.455836 33.5262 -0.464243 35.3842 1.3938C44.5449 10.5456 53.7018 19.7024 62.8546 28.8642C64.7497 30.7593 64.7362 33.1991 62.8445 35.0857C53.7477 44.1826 44.6503 53.2794 35.5524 62.3762C33.6472 64.283 31.2158 64.3032 29.3309 62.4115C20.1657 53.2575 11.0049 44.1007 1.84869 34.9411C0.0427711 33.1335 -0.0261731 30.6365 1.71921 28.8878C7.9777 22.6102 14.2463 16.34 20.5249 10.077C20.5838 10.0148 20.6527 9.96769 20.8175 9.83149Z" fill="#EF5034"/>
<path d="M54.3027 60.4559V62.7024L52.2849 62.8806C52.4934 63.8509 52.8718 64.7841 52.8566 65.7106C52.818 68.1571 51.0726 69.7461 48.2881 70.027C47.5922 70.0838 46.8927 70.0777 46.198 70.0085C45.1286 69.9177 45.0462 69.9496 44.6577 71.1149C46.6234 71.283 48.5924 71.4192 50.5429 71.6429C52.8264 71.9052 53.8353 72.7711 54.0858 74.5367C54.3717 76.5545 53.4132 78.3436 51.4745 79.1137C48.5302 80.2807 45.4867 80.2437 42.5189 79.3088C40.1362 78.5571 39.6974 76.2249 41.431 74.3988C41.5268 74.2979 41.6159 74.192 41.7084 74.0894C39.8722 72.376 40.6491 71.2595 42.7913 69.3325C42.2162 68.5035 41.4007 67.7704 41.1418 66.8775C40.2237 63.6979 41.5319 60.7468 45.485 60.2828C46.6318 60.1482 47.8156 60.3483 48.9842 60.3853C49.9606 60.4178 50.9375 60.4408 51.915 60.4543C52.707 60.466 53.4838 60.4559 54.3027 60.4559ZM47.0101 67.2744C48.4629 67.2744 49.4247 66.3748 49.4079 65.0514C49.3894 63.676 48.4663 62.8134 47.0236 62.8218C45.4901 62.8302 44.5938 63.7197 44.6191 65.2061C44.6409 66.553 45.4833 67.2828 47.0101 67.2744ZM46.7814 77.4373C47.5247 77.3397 48.2797 77.2927 49.0077 77.1329C49.6299 76.9967 50.2167 76.6722 50.1713 75.9155C50.1226 75.1151 49.4096 75.1134 48.848 75.0596C47.5734 74.9369 46.2938 74.8663 45.0142 74.7872C44.1886 74.7385 43.7396 75.0865 43.6219 75.8264C43.4975 76.6116 43.9868 76.9883 44.6191 77.1396C45.3169 77.3011 46.0466 77.3414 46.7814 77.4373Z" fill="#040404"/>
<path d="M64.632 62.5613H62.6731V60.1887C65.1852 60.0205 65.8679 58.1995 66.0815 56.0068H68.6272V59.8659H72.4442V62.5562H68.6609C68.6609 64.9305 68.6256 67.2156 68.6777 69.4991C68.6979 70.3785 69.2696 70.8443 70.2011 70.8191C70.9426 70.7989 71.6791 70.6274 72.5131 70.5097L73.2026 72.7629C70.9948 73.7533 68.7769 74.2611 66.4766 73.3833C64.9633 72.81 64.6757 71.4143 64.6505 69.9968C64.6018 67.5654 64.632 65.1356 64.632 62.5613Z" fill="#050505"/>
<path d="M55.5351 73.7313V71.7253C55.5637 71.7034 55.5822 71.6765 55.6075 71.6715C57.2082 71.2881 57.2082 71.2881 57.2082 69.6352C57.2082 67.7637 57.1645 65.8905 57.2301 64.0207C57.2587 63.2035 57.0199 62.7579 56.2077 62.6183C55.9539 62.5464 55.7082 62.4484 55.4746 62.3258C55.5637 61.6195 55.6428 60.9352 55.742 60.2256H61.2219V62.4821C61.2219 65.1086 61.2505 67.7351 61.2034 70.3616C61.19 71.1351 61.3211 71.5941 62.1972 71.5538C62.4321 71.5697 62.6645 71.612 62.89 71.6799V73.7313H55.5351Z" fill="#050505"/>
<path d="M56.5004 55.8218C56.5004 54.2395 57.2049 53.5417 58.8056 53.54C60.4619 53.54 61.2202 54.2496 61.2219 55.805C61.2236 57.3604 60.4064 58.1911 58.8679 58.1961C57.3293 58.2012 56.5004 57.3755 56.5004 55.8218Z" fill="#070707"/>
</g>
<defs>
<clipPath id="clip0_524_361">
<rect width="72.7511" height="80" fill="white" transform="translate(0.451416)"/>
</clipPath>
</defs>
</svg>
