<svg width="57" height="80" viewBox="0 0 57 80" fill="none" xmlns="http://www.w3.org/2000/svg">
<g clip-path="url(#clip0_524_338)">
<path d="M28.1822 80.0003C27.6554 79.8429 27.1307 79.6772 26.5998 79.5311C19.5345 77.5727 12.4692 75.6178 5.40388 73.6662C5.21044 73.6127 5.1415 73.5345 5.12504 73.3411C5.02215 72.0796 4.90382 70.8182 4.79064 69.5567C4.64042 67.8816 4.49019 66.2058 4.33997 64.5294C4.2117 63.095 4.08446 61.6607 3.95824 60.2264C3.80802 58.5417 3.65711 56.857 3.50551 55.1723C3.37724 53.7318 3.24965 52.2889 3.12275 50.8436C2.97321 49.1767 2.82368 47.5095 2.67414 45.842C2.54587 44.4015 2.41794 42.9586 2.29035 41.5133C2.1415 39.8368 1.99162 38.161 1.84071 36.4859C1.71244 35.0516 1.58485 33.6173 1.45795 32.183C1.30773 30.4983 1.15682 28.8136 1.00523 27.1289C0.876953 25.6781 0.749019 24.2266 0.621432 22.7745C0.473267 21.1158 0.324075 19.4572 0.173852 17.7986C0.113145 17.1185 0.0555273 16.4383 -0.00415039 15.7407H56.6763C56.6351 16.2336 56.596 16.7151 56.5528 17.1956C56.4204 18.6814 56.2873 20.1672 56.1536 21.6529C56.0034 23.3205 55.8528 24.9877 55.7019 26.6546C55.5722 28.1064 55.4477 29.5582 55.3181 31.01C55.1699 32.6686 55.0204 34.3273 54.8695 35.9859C54.7398 37.4367 54.6119 38.8881 54.4857 40.3403C54.3375 41.9989 54.188 43.6576 54.0371 45.3162C53.9088 46.7505 53.7816 48.1848 53.6553 49.6192C53.5051 51.2943 53.3546 52.97 53.2036 54.6465C53.0761 56.0808 52.9488 57.5152 52.8219 58.9495C52.6717 60.6335 52.5208 62.3179 52.3692 64.0025C52.2409 65.443 52.1133 66.8859 51.9864 68.3312C51.8372 69.9991 51.6778 71.666 51.543 73.3339C51.5244 73.5551 51.4401 73.6168 51.2456 73.6683C48.2713 74.4853 45.2981 75.3053 42.3258 76.1285L28.6411 79.9005C28.5548 79.928 28.47 79.9599 28.387 79.9962L28.1822 80.0003ZM28.3366 60.3118L28.2882 60.3509C25.7132 59.6581 23.1378 58.9635 20.562 58.2673C20.5161 58.2442 20.4763 58.2107 20.4458 58.1694C20.4152 58.1281 20.3948 58.0802 20.3861 58.0296C20.2832 56.9863 20.1978 55.9399 20.1052 54.8955C20.0366 54.1211 19.968 53.3473 19.8994 52.5743H12.7803C12.9366 54.3564 13.0889 56.1189 13.2464 57.8804C13.412 59.7376 13.5859 61.5928 13.7454 63.451C13.7608 63.6352 13.8112 63.7134 13.9975 63.7649C18.7799 65.0949 23.561 66.4301 28.3407 67.7705V75.0995L30.1135 74.6046C31.6871 74.1677 33.2596 73.73 34.8312 73.2917L39.4768 72.0127L44.1203 70.7245C45.0268 70.4735 45.9343 70.2214 46.8428 69.9744C47.0003 69.9312 47.0959 69.8715 47.1062 69.6812C47.1258 69.3036 47.169 68.926 47.204 68.5494C47.2698 67.8384 47.3388 67.1264 47.4026 66.4144C47.4437 65.9503 47.4736 65.4883 47.5147 65.0222C47.5795 64.2927 47.6495 63.5642 47.7205 62.8347C47.7596 62.3964 47.7936 61.9581 47.8337 61.5208C47.8985 60.8252 47.9695 60.1317 48.0323 59.4372C48.0745 58.9732 48.1033 58.5112 48.1444 58.044C48.2092 57.3155 48.2802 56.586 48.3502 55.8576C48.3914 55.4017 48.4233 54.9459 48.4644 54.4911C48.5282 53.7874 48.5992 53.0846 48.663 52.3818C48.7042 51.926 48.734 51.4702 48.7752 51.0154C48.839 50.2952 48.9099 49.5749 48.9809 48.8547C49.0211 48.4081 49.053 47.9605 49.0941 47.5171C49.1579 46.84 49.231 46.164 49.2927 45.486C49.3359 45.0055 49.3627 44.5229 49.4049 44.0455C49.4687 43.3077 49.5407 42.57 49.6055 41.8323C49.6456 41.3857 49.6775 40.9381 49.7197 40.4946C49.7825 39.8269 49.8555 39.157 49.9173 38.4903C49.9615 38.018 49.9883 37.5437 50.0294 37.0714C50.0942 36.3244 50.1642 35.5784 50.2352 34.8325C50.2743 34.3941 50.3072 33.9558 50.3484 33.5175C50.4122 32.8312 50.4842 32.147 50.547 31.4596C50.5902 30.9874 50.6169 30.513 50.6591 30.0407C50.7229 29.303 50.7939 28.5653 50.8649 27.8275C50.903 27.3985 50.9369 26.9684 50.9771 26.5393C51.0419 25.853 51.1139 25.1678 51.1756 24.4815C51.2189 24.0092 51.2446 23.5359 51.2878 23.0636C51.365 22.2158 51.4493 21.369 51.5337 20.4861H40.6909C36.6719 20.4861 32.6526 20.4861 28.6329 20.4861C28.4168 20.4861 28.3314 20.5232 28.3325 20.767C28.3427 23.0307 28.3397 25.2943 28.3407 27.5631C28.2275 27.5631 28.1154 27.5724 28.0032 27.5724H10.5434C11.1834 34.7275 11.8213 41.8652 12.4633 49.0121H28.0001C28.1123 49.0121 28.2255 49.0183 28.3376 49.0224C28.339 52.7855 28.3386 56.5487 28.3366 60.3118Z" fill="#E34D26"/>
<path d="M28.8973 10.8243V0.0205688C28.9797 0.0205688 29.0548 0.00925051 29.1299 0.00925051C30.2226 0.00925051 31.3163 0.00925051 32.4101 0.00925051C32.4849 0.00152457 32.5603 0.017158 32.6259 0.0540054C32.6915 0.0908528 32.7441 0.147106 32.7764 0.215036C33.4524 1.34685 34.1397 2.4653 34.824 3.58888C34.8631 3.65371 34.9083 3.71441 34.968 3.80187C35.4742 2.96844 35.9671 2.15559 36.4599 1.34994C36.7017 0.950717 36.9405 0.549436 37.1915 0.156386C37.2145 0.120631 37.2447 0.0900187 37.2801 0.0664698C37.3155 0.0429208 37.3554 0.0269429 37.3973 0.0195388C38.5857 0.0123363 39.7751 0.0195388 40.9635 0.0195388C40.9835 0.024914 41.0029 0.0325068 41.0212 0.0421753V10.8243H37.4457V5.56956L37.3973 5.54899L34.9279 9.3735L32.4245 5.48416V10.8243H28.8973Z" fill="#010101"/>
<path d="M5.28353 0.0166016H8.87243V3.57977H12.1732V0.0166016H15.7683V10.8203H12.1815V7.20879H8.88066V10.8244H5.27942L5.28353 0.0166016Z" fill="black"/>
<path d="M20.5343 3.59619H17.3632V0.0175781H27.2871V3.58899H24.1335V10.8224H20.5322L20.5343 3.59619Z" fill="black"/>
<path d="M42.8301 10.8171V0.0195312H46.4313V7.24362H51.4977V10.8171H42.8301Z" fill="#010101"/>
<path d="M28.3408 27.5442C28.3408 25.2806 28.3408 23.017 28.3325 20.7482C28.3325 20.5043 28.4169 20.4673 28.633 20.4673C32.652 20.4721 36.6713 20.4721 40.691 20.4673H51.5101C51.4257 21.3501 51.3414 22.1969 51.2642 23.0447C51.221 23.517 51.1952 23.9903 51.152 24.4626C51.0903 25.1489 51.0183 25.8341 50.9534 26.5204C50.9133 26.9495 50.8794 27.3796 50.8413 27.8087C50.7744 28.5464 50.7034 29.2841 50.6355 30.0219C50.5933 30.4941 50.5666 30.9685 50.5234 31.4408C50.4606 32.127 50.3886 32.8113 50.3248 33.4986C50.2836 33.9369 50.2507 34.3752 50.2116 34.8136C50.1447 35.5595 50.0747 36.3055 50.0058 37.0525C49.9647 37.5248 49.9379 37.9991 49.8937 38.4714C49.8319 39.1402 49.7589 39.809 49.6961 40.4757C49.6539 40.9223 49.622 41.3699 49.5819 41.8133C49.5171 42.5511 49.4451 43.2888 49.3813 44.0266C49.3391 44.5081 49.3123 44.9907 49.2691 45.467C49.2074 46.1451 49.1343 46.8211 49.0705 47.4981C49.0294 47.9447 48.9975 48.3923 48.9573 48.8357C48.8915 49.556 48.8205 50.2762 48.7516 50.9965C48.7104 51.4513 48.6806 51.9071 48.6394 52.3629C48.5756 53.0656 48.5046 53.7684 48.4408 54.4722C48.3997 54.927 48.3678 55.3828 48.3266 55.8386C48.2618 56.5671 48.1908 57.2966 48.1208 58.0251C48.0797 58.4891 48.0509 58.9511 48.0087 59.4182C47.9459 60.1127 47.8749 60.8062 47.8101 61.5018C47.77 61.9391 47.736 62.3774 47.6969 62.8157C47.631 63.5452 47.5611 64.2737 47.4911 65.0032C47.45 65.4673 47.4201 65.9292 47.379 66.3953C47.3152 67.1074 47.2462 67.8194 47.1804 68.5304C47.1454 68.908 47.1022 69.2856 47.0826 69.6622C47.0723 69.8484 46.9797 69.9122 46.8192 69.9554C45.9107 70.2024 45.0032 70.4545 44.0967 70.7055L39.4768 72.0122L34.8312 73.2974C33.259 73.7336 31.6865 74.1713 30.1136 74.6103L28.3408 75.099V67.77V67.7504C28.4663 67.7175 28.5918 67.6856 28.7163 67.6476C33.3629 66.3477 38.0099 65.0499 42.6572 63.7541C42.7238 63.7471 42.7851 63.7143 42.8279 63.6628C42.8708 63.6113 42.8919 63.5451 42.8867 63.4784C42.9299 62.8559 42.9896 62.2344 43.0482 61.6129C43.1984 59.9543 43.3487 58.2964 43.4989 56.6391C43.6285 55.1883 43.753 53.7365 43.8827 52.2857C44.0329 50.6017 44.1842 48.9177 44.3364 47.2337C44.4517 45.964 44.5669 44.695 44.6822 43.4267C44.7264 42.9369 44.7665 42.4461 44.8118 41.9255H28.6227C28.527 41.9255 28.4313 41.9255 28.3366 41.9337V41.9152V34.6994V34.6808C28.3973 34.6808 28.457 34.6891 28.5177 34.6891H45.211C45.2872 34.6891 45.3633 34.6808 45.4549 34.6757L46.0907 27.5545H28.599C28.5126 27.5545 28.4262 27.5597 28.3397 27.5627L28.3408 27.5442Z" fill="#F06529"/>
<path d="M28.3407 49.0222C28.2285 49.0222 28.1154 49.0119 28.0032 49.0119H12.4633C11.8254 41.8629 11.1875 34.7273 10.5475 27.5547H28.0001C28.1123 27.5547 28.2244 27.5485 28.3376 27.5454V27.5639V34.682V34.7006C28.3037 34.7006 28.2687 34.6913 28.2347 34.6913H18.4712C18.4144 34.6958 18.358 34.7048 18.3025 34.7181C18.5186 37.1278 18.7326 39.519 18.9487 41.9298H27.3519C27.6812 41.9298 28.0114 41.9226 28.3407 41.9195V41.938V49.0047V49.0222Z" fill="#EAEAEA"/>
<path d="M28.3407 67.7703C23.5603 66.4334 18.7792 65.0982 13.9975 63.7647C13.8113 63.7133 13.7608 63.6351 13.7454 63.4509C13.5859 61.5927 13.412 59.7376 13.2464 57.8804C13.09 56.1188 12.9377 54.3563 12.7803 52.5742H19.8984C19.967 53.3459 20.0356 54.1197 20.1042 54.8955C20.1968 55.9398 20.2832 56.9862 20.3851 58.0295C20.3935 58.08 20.4137 58.1277 20.4439 58.169C20.474 58.2102 20.5135 58.2439 20.5589 58.2672C23.1319 58.9683 25.7074 59.6628 28.2852 60.3508L28.3366 60.3693V67.7508L28.3407 67.7703Z" fill="#EAEAEA"/>
<path d="M28.3367 60.3113C28.3367 56.5489 28.3367 52.7858 28.3367 49.0219V49.0034C28.4396 49.0034 28.5425 49.0106 28.6453 49.0106H37.0229C37.0229 49.1464 37.0311 49.2576 37.0229 49.3666C36.9632 50.0313 36.8963 50.695 36.8377 51.3597C36.6401 53.5876 36.4449 55.8149 36.2522 58.0415C36.2548 58.1012 36.2344 58.1596 36.1951 58.2046C36.1558 58.2496 36.1008 58.2778 36.0413 58.2833C35.6801 58.3718 35.321 58.4747 34.9629 58.5714L28.3665 60.3422L28.3367 60.3113Z" fill="#F06529"/>
<path d="M28.3397 60.3691L28.2882 60.3506L28.3366 60.3115L28.3674 60.3434C28.3592 60.353 28.3499 60.3617 28.3397 60.3691V60.3691Z" fill="#F06529"/>
<path d="M28.3407 41.9181C28.0115 41.9181 27.6812 41.9274 27.3519 41.9284H18.9456C18.7295 39.5177 18.5155 37.1264 18.2994 34.7167C18.3549 34.7034 18.4113 34.6945 18.4682 34.6899H28.2347C28.2687 34.6899 28.3037 34.6961 28.3376 34.6992L28.3407 41.9181Z" fill="#E34D26"/>
</g>
<defs>
<clipPath id="clip0_524_338">
<rect width="56.6763" height="80" fill="white"/>
</clipPath>
</defs>
</svg>
