<svg width="62" height="60" viewBox="0 0 62 60" fill="none" xmlns="http://www.w3.org/2000/svg">
<g clip-path="url(#clip0_524_392)">
<path d="M11.1282 4.83609e-06H50.8718C52.3032 -0.00134432 53.7209 0.279605 55.0436 0.826775C56.3664 1.37394 57.5682 2.17659 58.5804 3.18878C59.5926 4.20097 60.3953 5.40283 60.9424 6.72558C61.4896 8.04833 61.7705 9.46599 61.7692 10.8974V49.1026C61.7705 50.534 61.4896 51.9517 60.9424 53.2744C60.3953 54.5972 59.5926 55.799 58.5804 56.8112C57.5682 57.8234 56.3664 58.6261 55.0436 59.1732C53.7209 59.7204 52.3032 60.0014 50.8718 60H11.1282C9.6967 60.0014 8.27904 59.7204 6.95629 59.1732C5.63354 58.6261 4.43168 57.8234 3.41949 56.8112C2.40731 55.799 1.60466 54.5972 1.05749 53.2744C0.510318 51.9517 0.229369 50.534 0.230718 49.1026V10.8974C0.229369 9.46599 0.510318 8.04833 1.05749 6.72558C1.60466 5.40283 2.40731 4.20097 3.41949 3.18878C4.43168 2.17659 5.63354 1.37394 6.95629 0.826775C8.27904 0.279605 9.6967 -0.00134432 11.1282 4.83609e-06V4.83609e-06Z" fill="#330000"/>
<path d="M30.0512 35.9999H20.5127L18.564 42.0255C18.5422 42.1354 18.4802 42.2331 18.39 42.2995C18.2999 42.3659 18.1882 42.3963 18.0768 42.3845H13.2563C12.9743 42.3845 12.8973 42.2307 12.9743 41.923L21.2307 18.1538C21.3076 17.8973 21.3845 17.6153 21.4871 17.3076C21.5903 16.7581 21.6418 16.2001 21.6409 15.6409C21.6332 15.5767 21.6501 15.512 21.6882 15.4597C21.7262 15.4074 21.7826 15.3714 21.8461 15.3589H28.4871C28.6922 15.3589 28.7948 15.4358 28.8204 15.564L38.1794 41.9743C38.2563 42.2563 38.1794 42.3845 37.923 42.3845H32.564C32.4734 42.3933 32.3826 42.3698 32.3075 42.3182C32.2325 42.2666 32.1781 42.1902 32.1537 42.1025L30.0512 35.9999ZM21.9999 30.7948H28.5127C28.3589 30.2563 28.1537 29.6153 27.923 28.9486C27.6922 28.282 27.4614 27.5127 27.2307 26.7435C26.9999 25.9743 26.7435 25.1794 26.4871 24.3845C26.2307 23.5897 25.9999 22.8461 25.7948 22.1025C25.5896 21.3589 25.4102 20.7179 25.2307 20.1025H25.1794C24.9489 21.22 24.6579 22.3242 24.3076 23.4102C23.923 24.6409 23.5384 25.923 23.1281 27.205C22.7691 28.5127 22.3845 29.7179 21.9999 30.7948V30.7948Z" fill="#FF9A00"/>
<path d="M43.7692 19.7436C43.3483 19.7528 42.9298 19.6782 42.538 19.5242C42.1462 19.3701 41.789 19.1396 41.4871 18.8462C40.8997 18.2038 40.5868 17.3572 40.6153 16.4872C40.6002 16.0633 40.6746 15.641 40.8336 15.2478C40.9927 14.8546 41.2328 14.4993 41.5384 14.2052C42.1547 13.6226 42.9724 13.3011 43.8205 13.3077C44.8205 13.3077 45.5897 13.6154 46.1538 14.2052C46.7218 14.8269 47.0253 15.6454 46.9999 16.4872C47.0156 16.9204 46.9442 17.3524 46.7901 17.7576C46.6359 18.1627 46.4021 18.5329 46.1025 18.8462C45.8004 19.1539 45.4357 19.3933 45.0332 19.5481C44.6307 19.7029 44.1997 19.7696 43.7692 19.7436V19.7436ZM40.8974 42V22.2564C40.8974 22 40.9999 21.8975 41.2307 21.8975H46.3076C46.5384 21.8975 46.641 22.0257 46.641 22.2564V42C46.641 42.2821 46.5384 42.4103 46.3076 42.4103H41.282C41.2281 42.4147 41.1739 42.4069 41.1235 42.3875C41.073 42.3681 41.0276 42.3375 40.9906 42.298C40.9536 42.2586 40.926 42.2113 40.9099 42.1597C40.8937 42.1081 40.8895 42.0535 40.8974 42V42Z" fill="#FF9A00"/>
</g>
<defs>
<clipPath id="clip0_524_392">
<rect width="61.5385" height="60" fill="white" transform="translate(0.230713)"/>
</clipPath>
</defs>
</svg>
