<svg width="62" height="60" viewBox="0 0 62 60" fill="none" xmlns="http://www.w3.org/2000/svg">
<g clip-path="url(#clip0_524_404)">
<path d="M11.1282 4.83609e-06H50.8717C52.3032 -0.00134432 53.7209 0.279605 55.0436 0.826775C56.3664 1.37394 57.5682 2.17659 58.5804 3.18878C59.5926 4.20097 60.3952 5.40283 60.9424 6.72558C61.4896 8.04833 61.7705 9.46599 61.7692 10.8974V49.1026C61.7705 50.534 61.4896 51.9517 60.9424 53.2744C60.3952 54.5972 59.5926 55.799 58.5804 56.8112C57.5682 57.8234 56.3664 58.6261 55.0436 59.1732C53.7209 59.7204 52.3032 60.0014 50.8717 60H11.1282C9.6967 60.0014 8.27904 59.7204 6.95629 59.1732C5.63354 58.6261 4.43168 57.8234 3.41949 56.8112C2.4073 55.799 1.60466 54.5972 1.05749 53.2744C0.510318 51.9517 0.229369 50.534 0.230718 49.1026V10.8974C0.229369 9.46599 0.510318 8.04833 1.05749 6.72558C1.60466 5.40283 2.4073 4.20097 3.41949 3.18878C4.43168 2.17659 5.63354 1.37394 6.95629 0.826775C8.27904 0.279605 9.6967 -0.00134432 11.1282 4.83609e-06V4.83609e-06Z" fill="#001E36"/>
<path d="M14.0769 42.0769V15.6922C14.0769 15.5128 14.1538 15.4102 14.3333 15.4102C14.7692 15.4102 15.1795 15.4102 15.7692 15.3846C16.359 15.3589 17.0256 15.3589 17.7179 15.3333C18.4102 15.3076 19.1538 15.3076 19.9487 15.282C20.7436 15.2563 21.5128 15.2563 22.282 15.2563C24.3846 15.2563 26.1282 15.5128 27.5641 16.0512C28.8513 16.4883 30.025 17.2066 31 18.1538C31.8262 18.9827 32.4646 19.9796 32.8718 21.0769C33.2599 22.1454 33.4595 23.2733 33.4615 24.4102C33.4615 26.6153 32.9487 28.4358 31.9231 29.8717C30.8927 31.3057 29.454 32.3958 27.7949 32.9999C26.0513 33.641 24.1282 33.8717 22.0256 33.8717C21.4102 33.8717 21 33.8717 20.7436 33.8461C20.4872 33.8205 20.1282 33.8204 19.641 33.8204V42.0512C19.6467 42.0934 19.6439 42.1363 19.6327 42.1774C19.6216 42.2185 19.6023 42.2569 19.576 42.2904C19.5496 42.3239 19.5169 42.3517 19.4796 42.3723C19.4423 42.3929 19.4013 42.4058 19.359 42.4102H14.3846C14.1795 42.4102 14.0769 42.3076 14.0769 42.0769ZM19.6666 20.3589V28.9743C20.0256 28.9999 20.359 29.0256 20.6666 29.0256H22.0256C23.0266 29.0268 24.0216 28.871 24.9743 28.564C25.7918 28.3237 26.522 27.8516 27.0769 27.2051C27.6154 26.564 27.8718 25.6922 27.8718 24.564C27.8959 23.7628 27.6913 22.9712 27.282 22.282C26.8545 21.6162 26.2257 21.1042 25.4872 20.8204C24.5246 20.4434 23.4946 20.2689 22.4615 20.3076C21.7949 20.3076 21.2051 20.3076 20.7179 20.3333C20.3674 20.3104 20.0156 20.3189 19.6666 20.3589V20.3589Z" fill="#31A8FF"/>
<path d="M49.4616 27.4101C48.6874 27.0023 47.8583 26.7087 47 26.5383C46.0574 26.3248 45.0947 26.2131 44.1282 26.205C43.6093 26.1871 43.0906 26.2476 42.5898 26.3845C42.2704 26.4509 41.9871 26.6337 41.7949 26.8973C41.6653 27.1053 41.5945 27.3445 41.5898 27.5896C41.6017 27.8335 41.6916 28.0672 41.8462 28.2563C42.0892 28.5413 42.3853 28.7764 42.718 28.9486C43.3077 29.2563 43.9231 29.5383 44.5385 29.7947C45.9238 30.2611 47.2492 30.8894 48.4872 31.6665C49.3293 32.196 50.0256 32.9276 50.5128 33.7947C50.9249 34.6127 51.1275 35.5202 51.1026 36.4357C51.1234 37.6477 50.7746 38.8372 50.1026 39.846C49.3874 40.8696 48.3895 41.6626 47.2308 42.1281C45.9744 42.6665 44.4359 42.9486 42.5898 42.9486C41.4192 42.9533 40.2511 42.8416 39.1026 42.6152C38.1983 42.459 37.3187 42.183 36.4872 41.7947C36.3978 41.7499 36.3235 41.6799 36.2734 41.5933C36.2232 41.5067 36.1995 41.4074 36.2052 41.3075V36.846C36.2029 36.8022 36.2111 36.7585 36.2289 36.7184C36.2467 36.6783 36.2737 36.6429 36.3077 36.6152C36.3438 36.5942 36.3858 36.5853 36.4273 36.5899C36.4689 36.5945 36.5079 36.6124 36.5385 36.6409C37.5262 37.2232 38.599 37.6471 39.718 37.8973C40.7059 38.1543 41.7228 38.2836 42.7436 38.2819C43.718 38.2819 44.4103 38.1537 44.8718 37.9229C45.0777 37.8278 45.2522 37.676 45.3748 37.4853C45.4974 37.2945 45.5631 37.0728 45.5641 36.846C45.5641 36.487 45.359 36.1537 44.9487 35.8204C44.5385 35.487 43.6923 35.1024 42.4359 34.6152C41.147 34.1611 39.923 33.5404 38.7949 32.7691C37.9914 32.1964 37.3257 31.4519 36.8462 30.5896C36.437 29.7798 36.2344 28.8813 36.2564 27.9742C36.2602 26.8801 36.5616 25.8076 37.1282 24.8716C37.7796 23.8423 38.7145 23.0231 39.8205 22.5127C41.0257 21.8973 42.5385 21.6152 44.359 21.6152C45.423 21.6155 46.4856 21.6927 47.5385 21.846C48.2955 21.9484 49.0365 22.1466 49.7436 22.4357C49.8563 22.4757 49.9485 22.5587 50 22.6665C50.0296 22.7666 50.0468 22.8699 50.0513 22.9742V27.1537C50.0517 27.2035 50.0403 27.2527 50.018 27.2973C49.9957 27.3419 49.9632 27.3805 49.9231 27.4101C49.7739 27.4637 49.6107 27.4637 49.4616 27.4101Z" fill="#31A8FF"/>
</g>
<defs>
<clipPath id="clip0_524_404">
<rect width="61.5385" height="60" fill="white" transform="translate(0.230713)"/>
</clipPath>
</defs>
</svg>
