<svg width="101" height="80" viewBox="0 0 101 80" fill="none" xmlns="http://www.w3.org/2000/svg">
<g clip-path="url(#clip0_526_257)">
<path d="M0.31958 80.0006C0.866868 77.3076 1.41304 74.6146 1.9581 71.9216C2.95358 66.9821 3.94348 62.0418 4.92782 57.1006C6.00347 51.7252 7.08385 46.3503 8.16896 40.976C8.19568 40.8424 8.23326 40.7105 8.27001 40.5643C8.35295 40.5505 8.43659 40.5413 8.52055 40.5368C13.5814 40.5368 18.6423 40.5276 23.7024 40.5618C25.9681 40.5769 28.1586 41.0119 30.1387 42.1795C32.6199 43.6426 34.0187 45.8774 34.5173 48.665C35.1369 52.135 34.5749 55.4947 33.3548 58.7608C32.1221 62.0613 30.0635 64.7512 27.2667 66.8874C25.5497 68.1986 23.5671 68.8024 21.4726 69.1648C18.8928 69.6116 16.2948 69.5431 13.695 69.5523C12.6255 69.5557 11.5551 69.5557 10.4839 69.5523C10.2685 69.5523 10.1265 69.5707 10.0739 69.8354C9.41747 73.1431 8.75522 76.4502 8.08712 79.7567C8.07714 79.8398 8.07407 79.9236 8.07793 80.0072L0.31958 80.0006ZM11.4268 63.3131C11.599 63.3439 11.7726 63.3657 11.9471 63.3783C14.8433 63.4242 17.7162 63.2688 20.5656 62.6667C22.5891 62.24 24.0005 61.1326 24.9191 59.3262C25.862 57.4697 26.3247 55.4755 26.6053 53.4319C26.7664 52.2577 26.8207 51.0802 26.5218 49.9144C26.2144 48.6968 25.5071 47.8358 24.2427 47.581C22.939 47.318 21.6262 47.0315 20.3051 46.9372C18.6598 46.8194 17.0013 46.8829 15.3486 46.8787C14.5886 46.8787 14.7456 46.781 14.5969 47.4992C13.7919 51.4672 12.9929 55.4382 12.2001 59.4122C11.9421 60.6992 11.6865 61.9878 11.4226 63.3131H11.4268Z" fill="#171717"/>
<path d="M65.99 80.0008C66.3733 78.1251 66.7633 76.2503 67.14 74.3729C68.239 68.9033 69.335 63.4335 70.4279 57.9634C71.5653 52.2907 72.7028 46.6174 73.8402 40.9435C73.8886 40.7013 73.9287 40.5218 74.2661 40.526C79.3395 40.5452 84.4129 40.526 89.4855 40.5702C91.7629 40.5919 93.9668 41.0429 95.9419 42.2572C98.5099 43.8356 99.8236 46.2224 100.285 49.137C100.342 49.5036 100.396 49.871 100.452 50.2385V52.3263C100.368 52.9577 100.295 53.5899 100.201 54.2204C99.6657 57.9634 98.2803 61.3399 95.7882 64.2127C94.0612 66.2003 92.0903 67.8764 89.4997 68.6389C87.6833 69.1737 85.804 69.4652 83.911 69.5058C81.3397 69.56 78.7666 69.5475 76.1944 69.5525C75.9113 69.5525 75.7886 69.6152 75.7284 69.9225C75.2858 72.1974 74.8148 74.4673 74.3622 76.7405C74.1459 77.8261 73.9504 78.9193 73.7458 80.0092L65.99 80.0008ZM77.0889 63.3158C77.2547 63.3448 77.422 63.3654 77.5899 63.3776C80.5129 63.4227 83.4158 63.2782 86.2911 62.6544C88.2787 62.2234 89.6667 61.1236 90.5754 59.3447C91.3612 57.8089 91.8105 56.1713 92.1137 54.4818C92.3642 53.0971 92.5254 51.7075 92.2807 50.302C92.0301 48.8555 91.2911 47.8408 89.7845 47.5343C88.8191 47.3381 87.8537 47.0658 86.8782 47.0132C84.8138 46.903 82.7435 46.918 80.6757 46.8721C80.401 46.8654 80.3709 47.0174 80.3292 47.227C79.6711 50.5191 79.0088 53.8109 78.3424 57.1024L77.0889 63.3158Z" fill="#171717"/>
<path d="M54.2556 69.5573C54.405 68.8057 54.5403 68.1159 54.6798 67.4269C55.7379 62.1882 56.8069 56.9511 57.8433 51.7081C57.9658 51.025 58.0092 50.3301 57.9727 49.637C57.9276 48.4027 57.3221 47.6218 56.1354 47.3078C55.4243 47.1212 54.694 47.0167 53.9591 46.9963C51.9548 46.9379 49.9505 46.9546 47.9537 46.9128C47.5712 46.9045 47.466 47.0456 47.3991 47.3822C46.2333 53.2353 45.0619 59.0879 43.8849 64.9399C43.6035 66.3421 43.312 67.7418 43.0498 69.1465C42.9897 69.4705 42.8644 69.564 42.5354 69.564C40.2805 69.5482 38.0298 69.5557 35.7775 69.5557H35.3207C35.4677 68.8099 35.5996 68.1184 35.7382 67.4278C37.9163 56.6513 40.0943 45.8748 42.2723 35.0983C42.5908 33.5199 42.905 31.9404 43.2152 30.3597C43.2552 30.156 43.287 30.0006 43.5634 30.0015C45.9552 30.0123 48.347 30.0098 50.7388 30.0123C50.8025 30.0215 50.8653 30.0357 50.9267 30.0549C50.2152 33.5274 49.507 36.9982 48.7779 40.5408H49.2999C51.6216 40.5475 53.9449 40.5224 56.2657 40.57C58.2909 40.6118 60.2827 40.9041 62.1584 41.7309C62.5757 41.9204 62.9819 42.1334 63.3752 42.3689C65.0579 43.3502 65.797 44.8977 65.9991 46.7667C66.1937 48.5881 65.8989 50.3661 65.5381 52.1399C64.4001 57.7308 63.2663 63.3223 62.1367 68.9143C61.9855 69.6567 62.1367 69.554 61.3583 69.5557C59.1619 69.5596 56.965 69.5596 54.7675 69.5557L54.2556 69.5573Z" fill="#171717"/>
</g>
<defs>
<clipPath id="clip0_526_257">
<rect width="100.132" height="50" fill="white" transform="translate(0.31958 30)"/>
</clipPath>
</defs>
</svg>
