<svg width="41" height="60" viewBox="0 0 41 60" fill="none" xmlns="http://www.w3.org/2000/svg">
<g clip-path="url(#clip0_524_319)">
<path d="M10.0405 60C15.5594 60 20.0385 55.52 20.0385 50V40H10.0405C4.52158 40 0.0424805 44.48 0.0424805 50C0.0424805 55.52 4.52158 60 10.0405 60Z" fill="#0ACF83"/>
<path d="M0.0424805 30C0.0424805 24.48 4.52158 20 10.0405 20H20.0385V40H10.0405C4.52158 40 0.0424805 35.52 0.0424805 30Z" fill="#A259FF"/>
<path d="M0.0469971 10C0.0469971 4.48 4.5261 0 10.045 0H20.043V20H10.045C4.5261 20 0.0469971 15.52 0.0469971 10Z" fill="#F24E1E"/>
<path d="M20.0385 0H30.0365C35.5554 0 40.0345 4.48 40.0345 10C40.0345 15.52 35.5554 20 30.0365 20H20.0385V0Z" fill="#FF7262"/>
<path d="M40.0345 30C40.0345 35.52 35.5554 40 30.0365 40C24.5176 40 20.0385 35.52 20.0385 30C20.0385 24.48 24.5176 20 30.0365 20C35.5554 20 40.0345 24.48 40.0345 30Z" fill="#1ABCFE"/>
</g>
<defs>
<clipPath id="clip0_524_319">
<rect width="40" height="60" fill="white" transform="translate(0.0384521)"/>
</clipPath>
</defs>
</svg>
