<svg width="62" height="60" viewBox="0 0 62 60" fill="none" xmlns="http://www.w3.org/2000/svg">
<g clip-path="url(#clip0_524_416)">
<path d="M10.8974 4.83609e-06H50.641C52.0725 -0.00134432 53.4901 0.279605 54.8129 0.826775C56.1356 1.37394 57.3375 2.17659 58.3497 3.18878C59.3619 4.20097 60.1645 5.40283 60.7117 6.72558C61.2589 8.04833 61.5398 9.46599 61.5385 10.8974V49.1026C61.5398 50.534 61.2589 51.9517 60.7117 53.2744C60.1645 54.5972 59.3619 55.799 58.3497 56.8112C57.3375 57.8234 56.1356 58.6261 54.8129 59.1732C53.4901 59.7204 52.0725 60.0014 50.641 60H10.8974C9.46599 60.0014 8.04832 59.7204 6.72558 59.1732C5.40283 58.6261 4.20097 57.8234 3.18878 56.8112C2.17659 55.799 1.37394 54.5972 0.826775 53.2744C0.279605 51.9517 -0.00134432 50.534 4.83609e-06 49.1026V10.8974C-0.00134432 9.46599 0.279605 8.04833 0.826775 6.72558C1.37394 5.40283 2.17659 4.20097 3.18878 3.18878C4.20097 2.17659 5.40283 1.37394 6.72558 0.826775C8.04832 0.279605 9.46599 -0.00134432 10.8974 4.83609e-06V4.83609e-06Z" fill="#49021F"/>
<path d="M22.3589 15.6923V42C22.3589 42.2821 22.2307 42.4103 22 42.4103H16.9743C16.7436 42.4103 16.641 42.2821 16.641 42V15.6923C16.641 15.4616 16.7692 15.359 17 15.359H22C22.0388 15.3529 22.0785 15.3547 22.1167 15.3645C22.1548 15.3742 22.1906 15.3916 22.2217 15.4156C22.2529 15.4395 22.2789 15.4696 22.2981 15.504C22.3173 15.5384 22.3292 15.5763 22.3333 15.6154C22.343 15.6255 22.3503 15.6377 22.3547 15.651C22.3592 15.6643 22.3606 15.6784 22.3589 15.6923V15.6923Z" fill="#FF3366"/>
<path d="M37.1281 42.8206C35.2275 42.8518 33.3439 42.4576 31.6153 41.6668C30.007 40.9147 28.6591 39.7007 27.7435 38.1796C26.7948 36.6155 26.3333 34.6668 26.3333 32.3334C26.3073 30.4359 26.7945 28.5666 27.7435 26.9232C28.7166 25.2529 30.1259 23.879 31.8204 22.9488C33.6153 21.9488 35.7692 21.4616 38.3076 21.4616C38.4875 21.4596 38.6673 21.4682 38.8461 21.4873C39.0769 21.5129 39.3333 21.5129 39.641 21.5386V13.436C39.641 13.2565 39.7179 13.1539 39.8974 13.1539H45.1025C45.16 13.1462 45.2183 13.1603 45.2658 13.1936C45.3133 13.2268 45.3465 13.2768 45.3589 13.3334V37.795C45.3589 38.2565 45.3845 38.7693 45.4102 39.3334C45.4358 39.8975 45.4871 40.3847 45.5127 40.8206C45.5182 40.9072 45.4964 40.9933 45.4504 41.0669C45.4044 41.1405 45.3366 41.1978 45.2563 41.2309C43.9133 41.7953 42.5115 42.2081 41.0768 42.4616C39.7738 42.6978 38.4524 42.8179 37.1281 42.8206ZM39.641 37.6924V26.4103C39.4126 26.3552 39.1815 26.3125 38.9486 26.2821C38.6666 26.2565 38.3845 26.2309 38.1025 26.2309C37.0974 26.2195 36.1041 26.4481 35.2051 26.8975C34.3289 27.3341 33.5787 27.9872 33.0256 28.795C32.4615 29.6155 32.1794 30.718 32.1794 32.0514C32.1571 32.9513 32.305 33.8474 32.6153 34.6924C32.8633 35.3758 33.257 35.997 33.7692 36.5129C34.2635 36.9847 34.8602 37.3357 35.5127 37.5385C36.1996 37.7635 36.9182 37.8761 37.641 37.8719C38.0256 37.8719 38.3845 37.8462 38.7179 37.8206C39.0312 37.8448 39.3461 37.801 39.641 37.6924V37.6924Z" fill="#FF3366"/>
</g>
<defs>
<clipPath id="clip0_524_416">
<rect width="61.5385" height="60" fill="white"/>
</clipPath>
</defs>
</svg>
