<svg width="57" height="80" viewBox="0 0 57 80" fill="none" xmlns="http://www.w3.org/2000/svg">
<g clip-path="url(#clip0_524_375)">
<path d="M38.5263 0V2.8483L33.8828 2.95815C33.9817 3.06603 34.0411 3.13531 34.1044 3.20261C35.5949 4.80985 37.0844 6.41808 38.5728 8.0273C38.657 8.12377 38.7062 8.24581 38.7124 8.37368C38.7243 9.13673 38.7183 9.89977 38.7183 10.6747H28.6375V7.82441C30.216 7.7868 31.7906 7.8739 33.4245 7.73534C33.1098 7.37213 32.8446 7.05246 32.5645 6.74566C31.3043 5.36473 30.0412 3.98742 28.775 2.61375C28.7208 2.55867 28.6787 2.49293 28.6512 2.42069C28.6238 2.34845 28.6117 2.27129 28.6157 2.19412C28.6236 1.53895 28.6157 0.884775 28.6157 0.229607C28.6115 0.152642 28.6029 0.0759792 28.59 0H38.5263Z" fill="#0F0F10"/>
<path d="M26.8867 0C26.8867 0.0544324 26.8956 0.109855 26.8956 0.164287V10.6747H18.1469V7.06335H23.2813V0.258307C23.2813 0.172204 23.2883 0.0861022 23.2922 0H26.8867Z" fill="#0F0F10"/>
<path d="M5.24041 73.3561C5.17435 73.1463 5.12211 72.9324 5.08404 72.7158C5.02169 72.1635 4.98507 71.6083 4.93262 71.0541C4.85839 70.2831 4.77526 69.5132 4.70301 68.7412C4.64759 68.1563 4.60405 67.5704 4.55357 66.9855C4.49815 66.3778 4.43184 65.7702 4.37345 65.1625C4.33584 64.7666 4.30714 64.3708 4.27448 63.969C4.2151 63.3217 4.15077 62.6754 4.09238 62.0282C4.05477 61.6066 4.02805 61.185 3.99341 60.7634C3.937 60.1478 3.87267 59.5322 3.81428 58.9176C3.77667 58.5217 3.74698 58.1259 3.71036 57.7231C3.65098 57.0758 3.58665 56.4295 3.52826 55.7823C3.49164 55.3686 3.46393 54.9549 3.42929 54.5412C3.37189 53.9019 3.30855 53.2635 3.24916 52.6242C3.21255 52.2283 3.18187 51.8325 3.1502 51.4297C3.09082 50.7834 3.0255 50.1361 2.9681 49.4899C2.93049 49.0604 2.90377 48.6299 2.86913 48.2033C2.81272 47.5798 2.7474 46.9573 2.69 46.3338C2.65239 45.9201 2.62369 45.5064 2.59103 45.0927C2.53165 44.4455 2.46732 43.7992 2.40992 43.1519C2.37132 42.7224 2.3446 42.2929 2.31095 41.8654C2.25454 41.226 2.19021 40.5877 2.13182 39.9483C2.0952 39.5426 2.06452 39.1358 2.03285 38.73C1.97347 38.0759 1.91012 37.4207 1.85173 36.7665C1.81413 36.3528 1.78641 35.9381 1.75277 35.5245C1.69536 34.8851 1.63103 34.2468 1.57363 33.6074C1.53603 33.1858 1.50633 32.7642 1.46873 32.3426C1.41034 31.6875 1.347 31.0333 1.28762 30.3781C1.25199 29.9822 1.22131 29.5864 1.18865 29.1845C1.12828 28.5056 1.06395 27.8277 1.00556 27.1488C0.967948 26.7123 0.942217 26.2739 0.906588 25.8365C0.850176 25.205 0.783867 24.5746 0.726465 23.9432C0.688857 23.5295 0.660156 23.1158 0.627497 22.7021C0.568116 22.0232 0.503789 21.3453 0.444408 20.6663C0.40779 20.2378 0.381068 19.8073 0.34544 19.3798C0.287049 18.7246 0.223708 18.0704 0.165317 17.4152C0.15542 17.3054 0.165316 17.1935 0.15245 17.0857C0.131624 17.02 0.100923 16.958 0.0614014 16.9016V15.8535H0.2435C0.298922 16.6858 0.342469 17.5192 0.411747 18.3505C0.481025 19.1818 0.558221 20.0122 0.629478 20.8435C0.699746 21.6511 0.763085 22.4596 0.833353 23.2672C0.920445 24.2629 1.01447 25.2575 1.10255 26.2541C1.17282 27.0538 1.23418 27.8534 1.30049 28.6531C1.38857 29.6428 1.48456 30.6325 1.57067 31.6162C1.65677 32.5999 1.73298 33.5768 1.82007 34.5566C1.90716 35.5363 2.00415 36.4993 2.09124 37.4712C2.17833 38.443 2.25355 39.4169 2.34064 40.3888C2.43961 41.5407 2.5554 42.6927 2.65833 43.8447C2.74542 44.8166 2.81965 45.7895 2.90674 46.7613C3.00571 47.9064 3.12348 49.0495 3.22541 50.1935C3.32735 51.3376 3.42335 52.4995 3.52232 53.6515C3.62129 54.8035 3.69749 55.9387 3.79646 57.0827C3.88355 58.0546 3.95778 59.0285 4.04487 60.0003C4.14384 61.1444 4.26161 62.2875 4.36355 63.4316C4.45163 64.4044 4.52586 65.3773 4.61295 66.3491C4.71192 67.4932 4.8287 68.6373 4.93163 69.7814C5.03752 70.9729 5.13748 72.1645 5.24041 73.3561Z" fill="#EAE9E6"/>
<path d="M5.24031 73.3564C5.14134 72.1687 5.03742 70.9732 4.93054 69.7816C4.83157 68.6376 4.71379 67.4935 4.61186 66.3494C4.52477 65.3776 4.45054 64.4047 4.36246 63.4318C4.26349 62.2878 4.14671 61.1447 4.04378 60.0006C3.95669 59.0288 3.88246 58.0549 3.79537 57.083C3.6964 55.939 3.57863 54.7959 3.47669 53.6508C3.37476 52.5058 3.27876 51.3459 3.17979 50.1929C3.08082 49.0399 2.96404 47.9057 2.86111 46.7607C2.77402 45.7888 2.69979 44.816 2.6127 43.8441C2.51373 42.6921 2.39695 41.5401 2.29501 40.3881C2.20792 39.4163 2.13171 38.4434 2.04561 37.4706C1.95951 36.4977 1.86054 35.5278 1.77444 34.5559C1.68834 33.5841 1.61114 32.5954 1.52504 31.6156C1.43894 30.6358 1.34294 29.6362 1.25486 28.6525C1.18459 27.8528 1.12323 27.0532 1.05692 26.2535C0.968838 25.2569 0.874815 24.2623 0.787723 23.2667C0.717455 22.4591 0.654116 21.6505 0.583849 20.8429C0.512591 20.0116 0.430453 19.1823 0.366123 18.3499C0.301794 17.5176 0.253298 16.6853 0.197876 15.853L0.219646 15.6362H56.6454C56.6454 15.8807 56.6622 16.1232 56.6454 16.3617C56.5623 17.3969 56.4663 18.4311 56.3782 19.4663C56.3089 20.2808 56.2466 21.0973 56.1803 21.9128C56.1139 22.7283 56.0298 23.5576 55.9576 24.3801C55.8883 25.1718 55.825 25.9635 55.7596 26.7553C55.6884 27.5698 55.6112 28.3843 55.5389 29.1998C55.4855 29.8104 55.44 30.423 55.3816 31.0337C55.3093 31.8571 55.2331 32.6795 55.1609 33.5019C55.1064 34.1136 55.0619 34.7252 55.0035 35.3368C54.9313 36.1592 54.8541 36.9817 54.7818 37.8051C54.7274 38.4157 54.6829 39.0273 54.6245 39.6389C54.5522 40.4624 54.476 41.2848 54.4038 42.1072C54.3493 42.7109 54.3048 43.3146 54.2464 43.9183C54.1732 44.7407 54.097 45.5632 54.0237 46.3856C53.9545 47.1615 53.8901 47.9384 53.8208 48.7133C53.7476 49.5288 53.6714 50.3433 53.5982 51.1578C53.5447 51.7516 53.4992 52.3454 53.4428 52.9452C53.3686 53.7676 53.2914 54.59 53.2181 55.4125C53.1498 56.1884 53.0855 56.9653 53.0202 57.7412C52.9479 58.5557 52.8708 59.3702 52.7975 60.1847C52.7441 60.7785 52.6986 61.3723 52.6421 61.9721C52.5689 62.7876 52.4927 63.6021 52.4195 64.4166C52.3535 65.1767 52.2859 65.9354 52.2166 66.6928C52.1433 67.5004 52.0671 68.308 51.9939 69.1146C51.9279 69.8588 51.86 70.6034 51.79 71.3483C51.7366 71.9421 51.6911 72.5359 51.6336 73.1357C51.6247 73.1604 51.6158 73.1842 51.6059 73.2089C51.5981 73.2191 51.5939 73.2317 51.5941 73.2445C51.4237 73.3567 51.2439 73.4537 51.0567 73.5345C50.0739 73.8611 49.0931 74.1986 48.0965 74.4816C44.6762 75.4522 41.2522 76.4108 37.8246 77.3576C34.7734 78.1979 31.7331 79.0025 28.6948 79.8229C28.4334 79.9047 28.1543 79.9116 27.8892 79.8427C25.6268 79.2153 23.3584 78.6106 21.096 77.9801C16.3 76.6434 11.5053 75.3011 6.71197 73.9531C6.25176 73.8245 5.7876 73.7077 5.32641 73.586L5.25515 73.4989L5.24921 73.4514L5.24031 73.3564ZM28.2564 60.0659C28.1415 60.0635 28.027 60.0519 27.9139 60.0313C25.9471 59.5121 23.9816 58.9902 22.0174 58.4656C21.5117 58.331 21.0069 58.1895 20.5022 58.051C20.4339 57.2256 20.3716 56.4249 20.3043 55.6252C20.2172 54.6623 20.1162 53.6993 20.0361 52.7354C20.0202 52.5374 19.9589 52.4731 19.754 52.4741C17.5153 52.4814 15.276 52.483 13.036 52.4791C12.9598 52.4791 12.8846 52.487 12.7767 52.4939C12.8163 53.2619 12.8371 54.0091 12.8995 54.7533C13.0232 56.228 13.1558 57.7016 13.3112 59.1723C13.4497 60.4866 13.6368 61.7959 13.7743 63.1102C13.8189 63.5318 13.9723 63.7396 14.4058 63.8594C18.4912 64.9906 22.5696 66.1495 26.6511 67.2975C27.1865 67.448 27.7259 67.5806 28.2633 67.7211C28.3108 67.8082 28.3989 67.8933 28.4009 67.9804C28.4246 69.2165 28.4365 70.4546 28.4533 71.6897C28.4672 72.6735 28.4837 73.6576 28.5028 74.642C28.5152 74.7543 28.5363 74.8655 28.5661 74.9745C29.4806 74.731 30.3664 74.4994 31.2502 74.258C32.6882 73.8621 34.1202 73.4662 35.5612 73.0703C36.9369 72.6913 38.3155 72.3192 39.6902 71.9342C41.0648 71.5492 42.4543 71.1533 43.832 70.7466C44.8484 70.4497 45.8598 70.133 46.8703 69.8143C46.913 69.7969 46.9512 69.77 46.9821 69.7357C47.0129 69.7015 47.0356 69.6606 47.0485 69.6164C47.1088 69.2541 47.1474 68.8889 47.189 68.5277C47.2444 68.0061 47.288 67.4826 47.3434 66.961C47.4008 66.393 47.4641 65.8249 47.5205 65.2568C47.5591 64.8669 47.5868 64.476 47.6195 64.086C47.6779 63.4922 47.7412 62.8984 47.7996 62.3115C47.8382 61.9216 47.8679 61.5307 47.9055 61.1407C47.9639 60.5331 48.0263 59.9264 48.0837 59.3177C48.1213 58.9219 48.149 58.526 48.1826 58.1242C48.24 57.5165 48.3044 56.9089 48.3628 56.3012C48.4004 55.9053 48.4281 55.5095 48.4617 55.1076C48.5201 54.4683 48.5835 53.829 48.6438 53.1906C48.6795 52.8155 48.7111 52.4414 48.7428 52.0673C48.8022 51.4359 48.8655 50.8045 48.9229 50.1741C48.9615 49.7604 48.9902 49.3457 49.0288 48.932C49.0862 48.3244 49.1505 47.7177 49.2069 47.11C49.2455 46.6964 49.2723 46.2817 49.3059 45.868C49.3633 45.2603 49.4306 44.6537 49.4851 44.046C49.5395 43.4383 49.584 42.8425 49.6345 42.2418C49.6929 41.5708 49.7572 40.9008 49.8176 40.2308C49.8532 39.8399 49.8839 39.4499 49.9166 39.06C49.9759 38.4127 50.0393 37.7665 50.0987 37.1192C50.1363 36.7055 50.165 36.2909 50.1976 35.8772C50.255 35.2458 50.3203 34.6153 50.3768 33.9839C50.4154 33.5623 50.4421 33.1397 50.4757 32.7181C50.5341 32.0481 50.5975 31.3771 50.6578 30.7071C50.6935 30.3013 50.7251 29.8946 50.7568 29.4888C50.8162 28.8267 50.8795 28.1636 50.9369 27.5005C50.9745 27.0641 51.0012 26.6256 51.0359 26.1882C51.0933 25.533 51.1616 24.8789 51.216 24.2237C51.2566 23.7397 51.2833 23.2538 51.315 22.7689C51.3625 22.0019 51.405 21.2339 51.4575 20.4679C51.4703 20.2808 51.4228 20.2076 51.215 20.2076C43.6934 20.2135 36.1718 20.2135 28.6503 20.2076C28.4226 20.2076 28.3652 20.2986 28.3672 20.5045C28.3731 21.1042 28.3672 21.703 28.3672 22.3027C28.3672 22.9025 28.3672 22.9084 27.7734 22.9124C27.2311 22.9124 26.6847 22.9262 26.1454 22.9341L24.5263 22.9242L24.4778 22.9163C22.8141 22.9262 21.1504 22.9262 19.4878 22.949C18.1091 22.9688 16.7305 23.0183 15.3519 23.0479C15.1154 23.0539 15.0293 23.1469 15.0203 23.3924C15.0065 23.7932 14.9531 24.192 14.9135 24.5909C14.8254 25.4756 14.7333 26.3594 14.6482 27.2432C14.576 27.9954 14.5107 28.7485 14.4414 29.5007C14.3691 30.2924 14.2939 31.0841 14.2217 31.8759C14.1514 32.6518 14.0851 33.4277 14.0148 34.2036C13.9436 35.0033 13.8674 35.802 13.7961 36.6006C13.7249 37.3993 13.6932 38.1623 13.6239 38.9491C13.5507 39.7874 13.4745 40.6266 13.4002 41.4649C13.3478 42.0587 13.3013 42.6525 13.2468 43.2523C13.1729 44.0994 13.0981 44.9459 13.0222 45.7918C12.9638 46.4578 12.9024 47.1239 12.85 47.7909C12.8183 48.1957 12.8015 48.6015 12.7757 49.03H28.095C28.194 49.03 28.2989 49.03 28.4018 49.0379V55.1027C28.4018 56.1102 28.4187 57.1187 28.3949 58.1262C28.3801 58.7714 28.3049 59.4187 28.2564 60.0659Z" fill="#E3A126"/>
<path d="M5.32451 73.588C5.78768 73.7097 6.25184 73.8265 6.71006 73.9552C11.5067 75.2939 16.302 76.6353 21.0961 77.9793C23.3585 78.6097 25.6268 79.2144 27.8892 79.8419C28.1543 79.9108 28.4334 79.9039 28.6948 79.8221C31.7331 79.0026 34.7764 78.198 37.8108 77.3627C41.2417 76.4199 44.6656 75.4612 48.0827 74.4866C49.0793 74.2036 50.062 73.8661 51.0428 73.5395C51.23 73.4587 51.4099 73.3617 51.5802 73.2495C51.5901 73.6632 51.6356 73.6216 51.2011 73.7444C49.8344 74.1343 48.4746 74.5421 47.1078 74.932C45.4857 75.3932 43.8597 75.8405 42.2356 76.2948C40.8501 76.6808 39.4714 77.0707 38.0889 77.4548C36.7884 77.817 35.488 78.1762 34.1875 78.5325C32.5001 78.9937 30.8048 79.4233 29.1263 79.9181C28.5394 80.0893 28.0119 79.9656 27.4676 79.8192C24.9934 79.159 22.5103 78.5019 20.0361 77.8289C18.1062 77.3033 16.1823 76.756 14.2554 76.2196C12.2899 75.6733 10.325 75.1273 8.36085 74.5816C7.37116 74.3045 6.38148 74.0185 5.3918 73.7404C5.29383 73.7127 5.21366 73.6969 5.32451 73.588Z" fill="#EAE9E7"/>
<path d="M51.5922 73.2139C51.6021 73.1891 51.611 73.1654 51.6199 73.1406C51.611 73.1654 51.5981 73.1921 51.5922 73.2139Z" fill="#EAE9E7"/>
<path d="M5.2471 73.4502L5.25304 73.4977C5.24636 73.4876 5.24041 73.477 5.23523 73.466C5.23523 73.466 5.24216 73.4551 5.2471 73.4502Z" fill="#EAE9E6"/>
<path d="M26.1771 22.9278C26.7195 22.9198 27.2658 22.9089 27.8051 22.906C28.399 22.906 28.399 22.906 28.399 22.2963C28.399 21.6867 28.399 21.0978 28.399 20.4981C28.399 20.2952 28.4544 20.2012 28.682 20.2012C36.2036 20.2058 43.7251 20.2058 51.2467 20.2012C51.4545 20.2012 51.5021 20.2744 51.4892 20.4615C51.4367 21.2275 51.3902 21.9955 51.3467 22.7625C51.316 23.2474 51.2893 23.7334 51.2477 24.2173C51.1933 24.8725 51.125 25.5267 51.0676 26.1818C51.029 26.6193 51.0023 27.0577 50.9686 27.4942C50.9112 28.1572 50.8479 28.8203 50.7885 29.4824C50.7529 29.8882 50.7212 30.295 50.6895 30.7007C50.6292 31.3707 50.5658 32.0418 50.5074 32.7118C50.4698 33.1334 50.4431 33.556 50.4085 33.9776C50.352 34.609 50.2867 35.2394 50.2293 35.8708C50.1917 36.2845 50.163 36.6992 50.1304 37.1129C50.071 37.7602 50.0076 38.4064 49.9483 39.0537C49.9126 39.4436 49.8819 39.8335 49.8493 40.2245C49.7889 40.8945 49.7246 41.5645 49.6662 42.2355C49.6137 42.8362 49.5672 43.438 49.5168 44.0397C49.4663 44.6414 49.395 45.254 49.3376 45.8617C49.299 46.2754 49.2723 46.6901 49.2387 47.1038C49.1822 47.7114 49.1179 48.3181 49.0605 48.9258C49.0219 49.3395 48.9932 49.7541 48.9546 50.1678C48.8972 50.7982 48.8339 51.4297 48.7745 52.0611C48.7389 52.4352 48.7072 52.8093 48.6755 53.1844C48.6152 53.8227 48.5518 54.4621 48.4934 55.1014C48.4568 55.4973 48.4291 55.8931 48.3945 56.295C48.3361 56.9026 48.2717 57.5103 48.2143 58.118C48.1757 58.5138 48.148 58.9097 48.1154 59.3115C48.058 59.9202 47.9956 60.5268 47.9372 61.1345C47.8996 61.5244 47.8699 61.9154 47.8313 62.3053C47.7729 62.8991 47.7096 63.4929 47.6512 64.0798C47.6136 64.4697 47.5859 64.8607 47.5522 65.2506C47.4958 65.8187 47.4325 66.3868 47.3751 66.9548C47.3216 67.4764 47.2761 68 47.2207 68.5215C47.1821 68.8867 47.1405 69.2519 47.0802 69.6102C47.0673 69.6545 47.0446 69.6953 47.0138 69.7295C46.9829 69.7638 46.9447 69.7907 46.902 69.8081C45.8916 70.1268 44.8801 70.4425 43.8637 70.7404C42.4861 71.1442 41.1055 71.54 39.7219 71.928C38.3472 72.313 36.9686 72.6851 35.5929 73.0642C34.1559 73.46 32.7229 73.8559 31.2819 74.2518C30.3981 74.4933 29.5123 74.7249 28.5979 74.9683C28.5681 74.8593 28.5469 74.7481 28.5345 74.6358C28.5147 73.652 28.4983 72.668 28.4851 71.6836C28.4682 70.4474 28.4564 69.2093 28.4326 67.9742C28.4326 67.8871 28.3425 67.802 28.295 67.7149C29.0027 67.5338 29.7142 67.3646 30.4179 67.1686C33.8791 66.2027 37.3391 65.2321 40.7977 64.257C41.3707 64.0956 41.9309 63.8888 42.497 63.7027L42.6414 63.6513L42.785 63.6008C42.8463 63.5355 42.9542 63.4771 42.9631 63.4029C43.0551 62.6695 43.1343 61.9342 43.2085 61.1979C43.3124 60.1646 43.4065 59.1304 43.5054 58.0962C43.6123 56.9607 43.7176 55.8249 43.8211 54.6887C43.9072 53.7327 43.9884 52.7756 44.0735 51.8186C44.1778 50.6508 44.2833 49.483 44.3902 48.3151C44.4733 47.3987 44.5505 46.4812 44.6406 45.5648C44.7524 44.4217 44.8761 43.2796 44.986 42.1365C44.986 42.0851 44.9058 42.0247 44.8623 41.9693C44.7217 41.9234 44.5773 41.8903 44.4308 41.8703C43.6836 41.8347 42.9354 41.7901 42.1872 41.7882C37.6927 41.775 33.1986 41.7677 28.7048 41.7664C28.6187 41.7664 28.5316 41.7664 28.4455 41.7664V30.9788C28.4455 30.8601 28.4544 30.7423 28.4583 30.6245C28.5045 30.6335 28.5511 30.6402 28.5979 30.6443C30.6762 30.7116 32.7545 30.768 34.8329 30.8492C35.4613 30.8739 36.0858 30.9679 36.7133 31.0224C36.8924 31.0382 36.9478 31.1263 36.9666 31.2945C37.0725 32.2842 37.2012 33.264 37.2982 34.2517C37.4179 35.474 37.5179 36.6982 37.6168 37.9225C37.6317 38.1026 37.697 38.2124 37.8712 38.2322C38.1827 38.2751 38.4961 38.3019 38.8104 38.3124C40.8056 38.3223 42.7998 38.3213 44.795 38.3233C44.8613 38.3233 44.9286 38.3134 44.9929 38.3084C44.5337 33.1888 44.0775 28.0929 43.6202 22.9911C43.546 22.9861 43.4926 22.9792 43.4391 22.9782C42.3505 22.9693 41.2618 22.9555 40.1732 22.9525C36.1043 22.9426 32.036 22.9343 27.9684 22.9278C27.343 22.9416 26.7571 22.9337 26.1771 22.9278Z" fill="#EFBD25"/>
<path d="M42.4601 63.7089C41.894 63.8949 41.3339 64.1048 40.7608 64.2631C37.3016 65.2403 33.8417 66.2108 30.3811 67.1748C29.6774 67.3727 28.9658 67.5399 28.2582 67.7211C27.7208 67.5805 27.1815 67.4479 26.646 67.2975C22.5646 66.1494 18.4861 64.9905 14.4007 63.8593C13.9692 63.7396 13.8139 63.5317 13.7693 63.1101C13.6318 61.7958 13.4447 60.4865 13.3062 59.1722C13.1508 57.7015 13.0182 56.2279 12.8944 54.7532C12.8321 54.009 12.8113 53.2618 12.7717 52.4938C12.8796 52.4869 12.9548 52.479 13.031 52.479C15.271 52.479 17.5103 52.4773 19.749 52.474C19.9538 52.474 20.0152 52.5324 20.031 52.7353C20.1112 53.6992 20.2121 54.6622 20.2992 55.6252C20.3715 56.4248 20.4338 57.2255 20.4972 58.0509C21.0019 58.1894 21.5066 58.3309 22.0124 58.4655C23.9765 58.9888 25.9421 59.5107 27.9089 60.0312C28.0219 60.0518 28.1364 60.0634 28.2513 60.0659C28.3118 60.0728 28.3729 60.0728 28.4334 60.0659C29.3746 59.8422 30.3197 59.6363 31.254 59.3859C32.7811 58.9762 34.2992 58.5368 35.8233 58.1152C36.0114 58.0627 36.1113 57.9737 36.1321 57.7639C36.2756 56.2793 36.429 54.8037 36.5804 53.3241C36.6903 52.2197 36.7912 51.1142 36.9011 50.0097C36.9328 49.691 36.9793 49.3733 37.0228 49.026H36.72C35.2302 49.026 33.7404 49.026 32.2506 49.026L28.3968 49.0319C28.2978 49.0319 28.1919 49.024 28.09 49.024H12.7757C12.8014 48.5954 12.8182 48.1897 12.8499 47.7849C12.9024 47.1178 12.9637 46.4518 13.0221 45.7857C13.0967 44.9392 13.1716 44.0927 13.2468 43.2462C13.2982 42.6524 13.3457 42.0586 13.4002 41.4588C13.4744 40.6206 13.5506 39.7813 13.6238 38.9431C13.6931 38.1592 13.7574 37.3744 13.8277 36.5906C13.898 35.8068 13.9752 34.9932 14.0464 34.1936C14.1167 33.4177 14.183 32.6418 14.2533 31.8658C14.3255 31.0741 14.4007 30.2824 14.473 29.4906C14.5423 28.7384 14.6076 27.9853 14.6798 27.2331C14.7649 26.3494 14.857 25.4656 14.9451 24.5808C14.9847 24.1849 15.0381 23.7831 15.0519 23.3823C15.0609 23.1408 15.1509 23.0438 15.3835 23.0379C16.7621 23.0072 18.1407 22.9577 19.5194 22.9389C21.182 22.9161 22.8457 22.9161 24.5093 22.9062L24.5578 22.9142L26.1769 22.9241C26.7599 22.93 27.3428 22.9379 27.9257 22.9389C31.9939 22.9481 36.0622 22.9564 40.1304 22.9637C41.2191 22.9637 42.3077 22.9805 43.3964 22.9894C43.4498 22.9894 43.5033 22.9973 43.5775 23.0022C44.0347 28.1041 44.4909 33.196 44.9502 38.3196C44.8898 38.3245 44.8225 38.3344 44.7522 38.3344C42.757 38.3344 40.7628 38.3344 38.7676 38.3235C38.4534 38.313 38.1399 38.2863 37.8284 38.2434C37.6542 38.2236 37.5889 38.1137 37.5741 37.9336C37.4751 36.7094 37.3761 35.4851 37.2554 34.2629C37.1564 33.2732 37.0298 32.2914 36.9239 31.3057C36.9051 31.1374 36.8496 31.0494 36.6705 31.0335C36.043 30.9791 35.4186 30.8851 34.7901 30.8603C32.7118 30.7792 30.6335 30.7228 28.5551 30.6555C28.5083 30.6513 28.4617 30.6447 28.4156 30.6357C28.3341 30.6067 28.2493 30.5877 28.1632 30.5793C26.5012 30.6228 24.8402 30.6697 23.1802 30.7198C22.7032 30.7346 22.2261 30.7703 21.7145 30.798C21.3651 34.4687 21.0217 38.1167 20.6684 41.7835H26.5837C27.127 41.7835 27.6723 41.7835 28.2137 41.7914C28.2137 44.0469 28.2137 46.3023 28.2078 48.5578C28.2078 48.7914 28.28 48.8409 28.5047 48.8399C31.3035 48.8326 34.102 48.8326 36.9001 48.8399C36.9991 48.8399 37.098 48.8498 37.1861 48.8547C37.1267 49.2734 37.0594 49.6574 37.0199 50.0424C36.9328 50.8915 36.8585 51.7416 36.7813 52.5918C36.7002 53.4963 36.6369 54.4029 36.5399 55.3055C36.4488 56.1527 36.3202 56.9959 36.2153 57.842C36.2125 57.9169 36.1851 57.9887 36.1373 58.0463C36.0895 58.104 36.024 58.1442 35.951 58.1607C34.5655 58.5695 33.1868 58.993 31.7944 59.3879C30.6859 59.7036 29.5686 59.9877 28.4532 60.2786C28.2741 60.3252 28.2038 60.4004 28.2068 60.5993C28.2325 61.9453 28.2355 63.2922 28.2612 64.6382C28.278 65.5289 28.3226 66.4127 28.3532 67.2995C28.3592 67.4845 28.4245 67.5419 28.6205 67.4885C29.619 67.2173 30.6236 66.9679 31.6231 66.6967C33.3722 66.223 35.1207 65.743 36.8684 65.2567C38.4697 64.8084 40.0671 64.3433 41.6674 63.89C41.9257 63.8207 42.1959 63.7702 42.4601 63.7089ZM44.8354 38.1444C44.8126 37.9366 44.7928 37.7683 44.775 37.6001C44.7245 37.1052 44.676 36.6025 44.6236 36.1037C44.5632 35.497 44.5008 34.8893 44.4444 34.2817C44.4058 33.868 44.3791 33.4533 44.3405 33.0396C44.2831 32.4161 44.2178 31.7936 44.1604 31.1701C44.1228 30.7564 44.0971 30.3417 44.0614 29.928C43.9882 29.1363 43.9031 28.3545 43.8338 27.5667C43.7764 26.9273 43.7348 26.285 43.6863 25.6447C43.6279 24.9262 43.5597 24.2097 43.5033 23.4912C43.4914 23.3427 43.4449 23.2477 43.2895 23.2348C42.7115 23.1873 42.1345 23.1032 41.5565 23.1012C37.2752 23.0903 32.9938 23.0963 28.7115 23.0893C28.5007 23.0893 28.4482 23.1487 28.4492 23.3556C28.4572 25.2162 28.4492 27.0778 28.4492 28.9394C28.4492 29.3887 28.4492 29.839 28.4492 30.2883C28.4492 30.4071 28.468 30.4763 28.6145 30.4803C29.4231 30.506 30.2317 30.5387 31.0392 30.5733C31.7142 30.601 32.3885 30.632 33.0621 30.6664C34.0102 30.7119 34.9594 30.7564 35.9075 30.8118C36.2509 30.8316 36.5923 30.8801 36.9348 30.9167C37.103 30.9336 37.1673 31.0157 37.1634 31.1939C37.1646 31.4683 37.1801 31.7425 37.2099 32.0153C37.2683 32.6863 37.3356 33.3563 37.392 34.0273C37.4316 34.4885 37.4464 34.9517 37.491 35.4129C37.5751 36.2303 37.681 37.0449 37.7661 37.8623C37.7879 38.0721 37.8581 38.1533 38.0867 38.1523C40.2393 38.1434 42.3918 38.1464 44.5444 38.1464L44.8354 38.1444Z" fill="#E9EAEB"/>
<path d="M28.4018 49.0347L32.2557 49.0288C33.7455 49.0288 35.2353 49.0288 36.7251 49.0288H37.0279C36.9844 49.3762 36.9378 49.6939 36.9062 50.0125C36.7963 51.117 36.6954 52.2225 36.5855 53.327C36.4371 54.8115 36.2807 56.2861 36.1372 57.7667C36.1164 57.9765 36.0164 58.0636 35.8284 58.118C34.3043 58.5396 32.7861 58.979 31.259 59.3888C30.3248 59.6391 29.3786 59.845 28.4384 60.0687C28.3779 60.0756 28.3169 60.0756 28.2563 60.0687C28.3048 59.4214 28.3801 58.7742 28.3949 58.1259C28.4187 57.1184 28.4018 56.11 28.4018 55.1025V49.0347Z" fill="#EFBD25"/>
<path d="M24.558 22.916L24.5095 22.9082L24.558 22.916Z" fill="#EFBD25"/>
<path d="M28.402 41.7783L28.2129 41.7961C27.6696 41.7961 27.1243 41.7882 26.5829 41.7882H20.6676C21.016 38.1264 21.3604 34.4734 21.7137 30.8027C22.2254 30.775 22.7034 30.7394 23.1794 30.7245C24.8401 30.6731 26.5011 30.6262 28.1625 30.584C28.2486 30.5925 28.3333 30.6114 28.4148 30.6404C28.4148 30.7582 28.402 30.8759 28.402 30.9947V41.7783Z" fill="#E3A126"/>
<path d="M42.7402 63.6109C42.8026 63.1299 42.8689 62.65 42.9253 62.169C42.9916 61.6187 43.054 61.0665 43.1084 60.5142C43.1648 59.9461 43.2074 59.3761 43.2588 58.807C43.3143 58.2132 43.3806 57.6253 43.437 57.0335C43.4766 56.6208 43.5043 56.2061 43.5419 55.7934C43.6003 55.163 43.6646 54.5326 43.722 53.9012C43.7606 53.4805 43.7883 53.0589 43.8259 52.6373C43.8843 51.9832 43.9487 51.329 44.008 50.6748C44.0437 50.2849 44.0744 49.8949 44.107 49.505C44.1674 48.835 44.2317 48.1659 44.2891 47.4959C44.3277 47.0585 44.3515 46.6211 44.3881 46.1846C44.4435 45.5849 44.5098 44.9861 44.5672 44.3873C44.6197 43.842 44.6662 43.2987 44.7186 42.7504C44.7444 42.4941 44.78 42.2387 44.8117 41.9834C44.8552 42.0388 44.9403 42.0992 44.9354 42.1507C44.8255 43.2937 44.7018 44.4358 44.59 45.5789C44.4999 46.4954 44.4227 47.4128 44.3396 48.3292C44.2334 49.4971 44.1278 50.6649 44.0229 51.8327C43.9378 52.7888 43.8566 53.7458 43.7705 54.7028C43.6676 55.839 43.5623 56.9748 43.4548 58.1103C43.3558 59.1445 43.2569 60.1787 43.1579 61.2119C43.0837 61.9483 43.0045 62.6836 42.9124 63.417C42.9095 63.4872 42.8016 63.5456 42.7402 63.6109Z" fill="#E9EAEB"/>
<path d="M42.5979 63.6594L42.7414 63.6089L42.5979 63.6594Z" fill="#E9EAEB"/>
<path d="M42.4563 63.7087L42.6008 63.6572L42.4563 63.7087Z" fill="#E9EAEB"/>
</g>
<defs>
<clipPath id="clip0_524_375">
<rect width="56.6415" height="80" fill="white" transform="translate(0.0118408)"/>
</clipPath>
</defs>
</svg>
