<svg width="81" height="80" viewBox="0 0 81 80" fill="none" xmlns="http://www.w3.org/2000/svg">
<path d="M37.4733 20C37.9701 20.0407 38.4676 20.0776 38.9638 20.1252C41.3724 20.3448 43.6953 20.8704 45.8523 22.0031C47.1783 22.7002 48.3422 23.6 49.2277 24.8247C50.4943 26.5768 50.8597 28.5705 50.6901 30.67C50.3973 34.3145 48.7202 37.3401 46.3498 40.0259C43.2791 43.5058 39.3819 45.5764 34.927 46.6947C32.2406 47.3692 29.5235 47.709 26.7545 47.5614C24.5806 47.4456 22.5293 46.94 20.7778 45.5589C19.9499 44.9068 19.2133 44.1734 18.8798 43.1359C18.8135 42.9391 18.7799 42.7328 18.7803 42.5252C18.7884 42.1578 19.1201 42.0064 19.4198 42.2173C19.5054 42.2768 19.5838 42.3461 19.6532 42.4238C20.8985 43.8393 22.5468 44.4519 24.3415 44.7535C26.583 45.129 28.7845 44.8111 30.9709 44.3155C34.7512 43.4594 38.1816 41.8656 41.1672 39.3719C43.0019 37.8394 44.5463 36.0647 45.5707 33.8802C46.1114 32.7263 46.4468 31.5229 46.4293 30.2326C46.4061 28.446 45.6233 27.1263 44.0614 26.2602C42.7641 25.5406 41.3587 25.1782 39.9 25.0011C36.9789 24.6476 34.0991 24.9386 31.245 25.5881C27.7369 26.3828 24.4241 27.6951 21.2377 29.3471C18.5882 30.72 16.0144 32.2175 13.6277 34.0172C11.5114 35.6117 9.56023 37.3757 8.09468 39.611C7.14288 41.0577 6.51711 42.614 6.34941 44.3455C6.16168 46.2936 6.70484 48.0307 7.82998 49.6089C8.98077 51.2227 10.4582 52.5031 11.9907 53.7308C13.7629 55.1507 15.547 56.5562 17.3097 57.991C17.8104 58.3978 18.2484 58.8771 18.7027 59.3364C18.8454 59.481 18.953 59.4979 19.132 59.399C21.6501 58.0161 24.1757 56.6394 26.6944 55.2539C26.8327 55.1782 26.9416 55.0355 27.0417 54.9066C28.3815 53.1739 29.9772 51.7465 31.9928 50.8473C32.5045 50.6147 33.0495 50.4637 33.6079 50.3998C35.1992 50.2384 36.2474 51.0538 36.4495 52.6595C36.5515 53.4655 36.4558 54.2965 36.4495 55.1156C36.4495 55.2064 36.4307 55.2965 36.4138 55.4504C36.539 55.376 36.6185 55.3353 36.6904 55.2852C37.3268 54.8372 38.375 54.9786 38.875 55.58C39.1078 55.8597 39.1535 56.1826 39.0627 56.5186C38.7336 57.7889 38.3788 59.053 38.0684 60.3277C37.7154 61.7738 37.3763 63.2243 37.0797 64.6824C36.9733 65.2068 36.9996 65.7593 36.9833 66.2994C36.9783 66.4583 37.034 66.6191 37.0621 66.7793L37.1547 66.8138C37.2799 66.6367 37.4338 66.4721 37.5302 66.2806C38.059 65.2525 38.614 64.2356 39.0871 63.1818C40.9064 59.1352 42.7057 55.0791 44.485 51.0137C44.8361 50.2084 45.0376 49.3342 45.2641 48.4806C45.373 48.0707 45.5826 47.8173 45.9787 47.7009C47.0502 47.3803 48.1781 47.2939 49.2859 47.4475C49.471 47.4778 49.6504 47.5363 49.8178 47.6208C50.2715 47.8386 50.3691 48.1045 50.2264 48.5832C49.9505 49.5106 49.5963 50.4261 49.4348 51.3742C49.1219 53.202 49.3566 54.9842 50.2052 56.66C50.3303 56.9103 50.459 57.1607 50.5913 57.411C50.5988 57.426 50.6238 57.4316 50.6707 57.4591C50.8522 57.1588 51.0374 56.8603 51.2151 56.5574C52.5837 54.2314 53.9441 51.8998 55.0417 49.4305C55.3064 48.8354 55.4597 48.1909 55.6531 47.5657C55.8227 47.0188 55.9503 46.4575 56.15 45.9225C56.2244 45.7235 56.4184 45.4957 56.6105 45.4262C57.7881 44.9875 59.0646 44.8854 60.2969 45.1315C60.4693 45.1729 60.6327 45.2457 60.7788 45.3461C61.1067 45.557 61.1661 45.7698 61.0547 46.149C60.7788 47.0877 60.424 48.0125 60.2525 48.97C59.9396 50.719 60.1436 52.4361 60.9045 54.0618C61.1962 54.6845 61.5216 55.2909 61.8226 55.9085C61.912 56.0918 62.0021 56.1494 62.2074 56.053C64.718 54.8691 67.3681 54.371 70.1334 54.5124C72.756 54.6476 75.1827 55.3772 77.2409 57.078C78.9192 58.4622 80.0149 60.2 80.274 62.3971C80.6294 65.4083 78.8516 67.3231 76.801 68.1786C76.6841 68.223 76.5622 68.2527 76.438 68.2668C76.2127 68.2993 75.9568 68.3688 75.8492 68.0791C75.7415 67.7893 75.9968 67.6817 76.1758 67.549C76.51 67.2987 76.8698 67.0822 77.177 66.8056C78.483 65.6336 78.973 64.2049 78.4423 62.4953C77.8923 60.7219 76.6902 59.5016 75.0951 58.6256C73.6852 57.8502 72.154 57.4748 70.5689 57.2839C68.4063 57.023 66.2636 57.1018 64.1573 57.7038C63.7875 57.8096 63.4289 57.9541 63.0609 58.0693C62.8488 58.1356 62.8375 58.2382 62.8951 58.4416C63.0828 59.1112 63.2894 59.782 63.4082 60.466C63.6911 62.0886 63.1267 63.4628 62.0453 64.6455C60.9377 65.8582 59.6155 66.7662 58.0636 67.3213C57.516 67.5171 56.9653 67.7293 56.3978 67.8425C55.1412 68.0928 54.1362 67.2574 54.1006 65.9771C54.0686 64.8201 54.4134 63.7556 54.9428 62.7475C55.8139 61.0936 57.021 59.7082 58.439 58.5042C58.6893 58.2927 58.7582 58.1362 58.5873 57.8327C57.5955 56.0699 57.0229 54.1595 56.6474 52.1827C56.6305 52.0913 56.6055 52.0012 56.5667 51.8372C56.4898 51.9693 56.4378 52.0475 56.3953 52.1313C55.0674 54.7558 53.6075 57.3027 51.9266 59.7194C51.8015 59.8978 51.8015 60.0417 51.881 60.2351C52.3121 61.2901 52.6457 62.3689 52.6838 63.5247C52.7464 65.3395 52.1363 66.8826 50.7521 68.0434C48.8078 69.6704 46.5432 70.4977 43.9856 70.4545C43.9024 70.4545 43.8192 70.4495 43.7353 70.4401C42.4031 70.2849 41.8824 69.2111 42.6678 68.1247C43.3793 67.1373 44.1777 66.213 44.9381 65.2606C45.9581 63.9834 46.9749 62.7031 48.0043 61.4315C48.1839 61.2094 48.1983 61.0285 48.0738 60.7632C47.5732 59.6994 47.04 58.6431 46.642 57.5399C46.2979 56.5849 46.1201 55.5699 45.8686 54.5812C45.8467 54.4942 45.8254 54.4079 45.7847 54.2439C45.7115 54.3904 45.6665 54.4655 45.6352 54.5462C43.6865 59.4898 41.3662 64.25 38.7423 68.8663C38.2548 69.7242 37.6554 70.5064 36.8475 71.0834C36.5125 71.3258 36.1277 71.4904 35.7211 71.5652C34.9827 71.6854 34.407 71.3393 34.0078 70.7148C33.6085 70.0903 33.4633 69.3875 33.4089 68.666C33.3656 68.1159 33.3514 67.5638 33.3663 67.0121C33.3832 66.4633 33.4546 65.9158 33.4677 65.352C33.4245 65.4496 33.3832 65.5485 33.3382 65.6454C32.5697 67.2862 31.8219 68.937 31.0197 70.5609C30.7794 71.0471 30.4165 71.4826 30.0604 71.9C29.1299 72.9913 26.9078 73.0264 25.9153 71.6841C25.1125 70.5984 24.63 69.3825 24.2733 68.0991C23.6707 65.9333 23.8353 63.7644 24.247 61.5986C24.4097 60.7695 24.6438 59.956 24.8521 59.1037C24.7545 59.1493 24.6544 59.1875 24.5624 59.2401C23.2683 59.9785 21.9767 60.7213 20.6826 61.4547C20.4899 61.5636 20.4492 61.6618 20.545 61.8739C21.3503 63.6549 21.5462 65.5366 21.4323 67.4633C21.3172 69.4338 20.8691 71.3293 19.9017 73.0533C17.6983 76.9712 14.3949 79.3454 9.89752 79.9242C8.53334 80.1001 7.17229 79.9624 5.84316 79.5882C5.1811 79.4005 4.69049 78.9693 4.2706 78.4537C3.46148 77.4606 3.03596 76.306 2.96275 75.037C2.81131 72.4219 3.73745 70.2017 5.51025 68.3106C7.24113 66.464 9.28551 65.0059 11.4425 63.7106C12.8374 62.8727 14.2766 62.1236 15.6996 61.3327C15.7898 61.2826 15.8774 61.2281 16.0081 61.1518C15.898 61.0382 15.7814 60.9311 15.659 60.8308C14.1809 59.767 12.7091 58.6882 11.216 57.6394C9.10842 56.1607 7.00334 54.6795 5.11915 52.9136C3.36386 51.2684 1.81384 49.4649 0.926496 47.1897C0.676188 46.5432 0.527881 45.8561 0.332642 45.1872V43.8731C0.407108 43.4745 0.467806 43.0733 0.559794 42.6791C1.02849 40.6698 1.96339 38.8763 3.13546 37.198C5.22427 34.2062 7.87503 31.7813 10.8124 29.6537C14.6484 26.8759 18.8266 24.7258 23.2026 22.9336C26.8158 21.4587 30.5285 20.3698 34.4496 20.0982C34.8738 20.0688 35.2981 20.0357 35.7224 20H37.4733ZM17.9987 62.8063C17.9237 62.8305 17.85 62.8585 17.7778 62.8902C15.4762 64.2225 13.2585 65.6755 11.2304 67.4057C9.99388 68.4614 8.95949 69.6685 8.34373 71.1929C7.98141 72.0896 7.74174 73.0076 7.90006 73.9932C8.03773 74.8468 8.48453 75.3136 9.32994 75.46C10.2129 75.6133 11.0527 75.4074 11.8656 75.0971C15.8555 73.5733 18.5675 69.3982 18.3229 65.1286C18.2816 64.367 18.1139 63.6117 17.9987 62.8063ZM27.9703 64.489C27.9703 64.7493 27.9553 65.0103 27.9703 65.2694C28.0198 65.9984 28.0955 66.7261 28.424 67.397C28.6925 67.947 29.0823 68.0008 29.4522 67.5127C29.771 67.1017 30.0458 66.6583 30.2719 66.1899C31.4684 63.6317 32.4677 60.9929 33.3638 58.3177C33.76 57.1362 34.0603 55.921 34.3651 54.7114C34.4539 54.3591 34.6235 53.9129 34.2462 53.6332C33.8582 53.3453 33.4408 53.5706 33.066 53.7452C32.3737 54.0701 31.772 54.5603 31.3138 55.1726C29.2388 57.9278 27.9685 60.9841 27.9703 64.489ZM59.9578 59.7057C59.837 59.7951 59.7769 59.8308 59.7262 59.879C58.3621 61.123 57.4309 62.6386 56.9046 64.4039C56.8447 64.6133 56.8098 64.829 56.8008 65.0466C56.7914 65.2487 56.8815 65.3595 57.1136 65.2694C59.1443 64.4746 60.2106 62.9884 60.153 60.8439C60.1455 60.4772 60.0322 60.1162 59.9578 59.7057ZM45.4312 67.917L45.4875 68.0221C46.301 67.912 46.8823 67.3507 47.4762 66.8494C48.5538 65.9396 49.336 64.8551 49.3535 63.3451L45.4312 67.917Z" fill="#CD6799"/>
</svg>
