<svg width="66" height="80" viewBox="0 0 66 80" fill="none" xmlns="http://www.w3.org/2000/svg">
<path fill-rule="evenodd" clip-rule="evenodd" d="M3.8425 22.9284C3.3262 23.3537 2.82841 24.1089 2.82841 25.5172V61.1494H63.5769V24.8276C63.5769 24.0532 63.1803 23.4604 62.4744 23.01C61.7406 22.5416 60.7583 22.2989 59.9091 22.2989H5.57929C5.10689 22.2989 4.40419 22.4657 3.8425 22.9284ZM63.5769 63.4483V68.046C63.5769 68.6808 64.0901 69.1954 64.7231 69.1954C65.3562 69.1954 65.8693 68.6808 65.8693 68.046V24.8276C65.8693 23.0732 64.8906 21.827 63.7052 21.0705C62.5478 20.3319 61.1231 20 59.9091 20H5.57929C4.67625 20 3.4304 20.2929 2.38742 21.152C1.29904 22.0486 0.536011 23.4773 0.536011 25.5172V69.6552C0.536011 71.2998 1.29078 72.5755 2.2409 73.4184C3.15873 74.2326 4.33709 74.7126 5.35005 74.7126H26.6693V77.7011H20.9383C20.3053 77.7011 19.7921 78.2158 19.7921 78.8506C19.7921 79.4854 20.3053 80 20.9383 80H45.467C46.1 80 46.6132 79.4854 46.6132 78.8506C46.6132 78.2158 46.1 77.7011 45.467 77.7011H39.9652V74.7126H57.3875C58.0205 74.7126 58.5337 74.198 58.5337 73.5632C58.5337 72.9284 58.0205 72.4138 57.3875 72.4138H5.35005C4.98756 72.4138 4.33201 72.2042 3.75978 71.6966C3.21984 71.2176 2.82841 70.5393 2.82841 69.6552V63.4483H63.5769ZM37.6729 74.7126H28.9617V77.7011H37.6729V74.7126ZM9.01788 26.6667C9.01788 26.0319 9.53105 25.5172 10.1641 25.5172H56.4705C57.1035 25.5172 57.6167 26.0319 57.6167 26.6667C57.6167 27.3015 57.1035 27.8161 56.4705 27.8161H10.1641C9.53105 27.8161 9.01788 27.3015 9.01788 26.6667ZM40.3549 31.1029C40.9502 31.3187 41.2584 31.9776 41.0432 32.5746L34.166 51.6551C33.9508 52.2521 33.2938 52.5611 32.6984 52.3453C32.1031 52.1296 31.7949 51.4707 32.0101 50.8737L38.8873 31.7932C39.1025 31.1962 39.7595 30.8871 40.3549 31.1029ZM21.5636 35.298C22.1275 35.0095 22.8178 35.234 23.1055 35.7995L24.95 39.4249L26.7945 35.7995C27.0822 35.234 27.7726 35.0095 28.3365 35.298C28.9003 35.5865 29.1242 36.2788 28.8365 36.8442L26.2368 41.954L28.8365 47.0638C29.1242 47.6293 28.9003 48.3216 28.3365 48.6101C27.7726 48.8986 27.0822 48.6741 26.7945 48.1086L24.95 44.4832L23.1055 48.1086C22.8178 48.6741 22.1275 48.8986 21.5636 48.6101C20.9998 48.3216 20.7759 47.6293 21.0636 47.0638L23.6633 41.954L21.0636 36.8442C20.7759 36.2788 20.9998 35.5865 21.5636 35.298ZM9.93484 35.1724C10.5679 35.1724 11.081 35.687 11.081 36.3218V44.8276C11.081 45.4057 11.3238 45.8062 11.7217 46.098C12.1531 46.4143 12.7906 46.6092 13.4881 46.6092C14.1856 46.6092 14.823 46.4143 15.2544 46.098C15.6523 45.8062 15.8951 45.4057 15.8951 44.8276V36.3218C15.8951 35.687 16.4082 35.1724 17.0413 35.1724C17.6743 35.1724 18.1875 35.687 18.1875 36.3218V44.8276C18.1875 46.2035 17.5419 47.2685 16.6074 47.9537C15.7064 48.6144 14.5672 48.908 13.4881 48.908C12.4089 48.908 11.2698 48.6144 10.3687 47.9537C9.43418 47.2685 8.78864 46.2035 8.78864 44.8276V36.3218C8.78864 35.687 9.30181 35.1724 9.93484 35.1724ZM44.3208 35.1724C44.9538 35.1724 45.467 35.687 45.467 36.3218V44.8276C45.467 45.4057 45.7098 45.8062 46.1077 46.098C46.5391 46.4143 47.1765 46.6092 47.874 46.6092C48.5715 46.6092 49.2089 46.4143 49.6403 46.098C50.0383 45.8062 50.281 45.4057 50.281 44.8276V36.3218C50.281 35.687 50.7942 35.1724 51.4272 35.1724C52.0603 35.1724 52.5734 35.687 52.5734 36.3218V44.8276C52.5734 46.2035 51.9279 47.2685 50.9934 47.9537C50.0923 48.6144 48.9531 48.908 47.874 48.908C46.7949 48.908 45.6557 48.6144 44.7547 47.9537C43.8201 47.2685 43.1746 46.2035 43.1746 44.8276V36.3218C43.1746 35.687 43.6878 35.1724 44.3208 35.1724ZM56.4705 35.1724C57.1035 35.1724 57.6167 35.687 57.6167 36.3218V47.3563C57.6167 47.9911 57.1035 48.5057 56.4705 48.5057C55.8375 48.5057 55.3243 47.9911 55.3243 47.3563V36.3218C55.3243 35.687 55.8375 35.1724 56.4705 35.1724ZM9.01788 57.0115C9.01788 56.3767 9.53105 55.8621 10.1641 55.8621H56.4705C57.1035 55.8621 57.6167 56.3767 57.6167 57.0115C57.6167 57.6463 57.1035 58.1609 56.4705 58.1609H10.1641C9.53105 58.1609 9.01788 57.6463 9.01788 57.0115ZM31.0249 68.046C31.0249 67.4112 31.5381 66.8966 32.1711 66.8966H34.4635C35.0965 66.8966 35.6097 67.4112 35.6097 68.046C35.6097 68.6808 35.0965 69.1954 34.4635 69.1954H32.1711C31.5381 69.1954 31.0249 68.6808 31.0249 68.046ZM61.743 72.8736C61.743 72.2388 62.2562 71.7241 62.8892 71.7241H63.1185C63.7515 71.7241 64.2647 72.2388 64.2647 72.8736C64.2647 73.5084 63.7515 74.023 63.1185 74.023H62.8892C62.2562 74.023 61.743 73.5084 61.743 72.8736Z" fill="#171717"/>
</svg>
