<svg width="61" height="80" viewBox="0 0 61 80" fill="none" xmlns="http://www.w3.org/2000/svg">
<path d="M30.4514 20C13.8832 20 0.451416 33.4318 0.451416 50C0.451416 66.5682 13.8838 80 30.4514 80C47.019 80 60.4514 66.5689 60.4514 50C60.4514 33.4311 47.0209 20 30.4514 20ZM30.4514 22.8254C37.1752 22.8153 43.6612 25.3127 48.6419 29.8297C46.8272 30.0848 43.6591 30.9472 43.6591 33.8695C43.6591 37.9626 46.0555 40.4404 47.2407 42.7828C48.4258 45.1252 48.9368 48.9222 48.2098 51.2112C47.4828 53.5003 43.7938 65.9406 43.7938 65.9406L33.9095 36.9935C33.9095 36.9935 36.0364 36.9128 36.9789 36.9128C37.9213 36.9128 38.056 36.4546 38.056 35.943C38.056 35.4315 37.8698 35.0546 36.7634 35.0546H23.0014C22.2204 35.0546 21.5735 35.2161 21.5735 35.8897C21.5735 36.5633 21.6809 37.1549 22.9735 37.1549H25.4779L29.6009 48.7608L23.7576 66.5602L13.7677 37.2387H16.189C17.1314 37.2387 17.8317 36.8886 17.8317 36.0542C17.8317 35.2198 17.1587 35.0577 16.2175 35.0577H7.78472C12.6334 27.6878 20.9744 22.8254 30.4514 22.8254ZM3.33706 49.9398C3.3318 46.092 4.14863 42.2874 5.73286 38.7809L18.6053 74.3361C9.56652 69.9394 3.33706 60.6672 3.33706 49.9398ZM22.7971 75.959L30.786 52.4771L39.402 75.5443C34.045 77.4065 28.2406 77.5519 22.7971 75.9602V75.959ZM43.8099 73.5415L44.0881 73.0231L47.6423 63.0326C47.6423 63.0326 52.0857 50.3228 53.4049 45.9596C54.4045 42.6555 54.312 39.0683 54.24 36.9159C56.4294 40.907 57.5739 45.387 57.567 49.9392C57.567 60.0588 52.0242 68.8821 43.8099 73.5415Z" fill="#21759B"/>
</svg>
